<svg width="118" height="126" viewBox="0 0 118 126" fill="none" xmlns="http://www.w3.org/2000/svg">
<rect x="9" y="13" width="100" height="100" rx="25" fill="#B2EEE6"/>
<path d="M34.29 101.286L113.146 30.8672C116.386 27.999 117.762 23.6067 116.773 19.3532C115.785 15.0997 112.617 11.6668 108.416 10.3129C104.215 8.95895 99.6437 9.88703 96.4024 12.784L17.546 83.2024C15.1233 85.3614 13.167 87.9955 11.8063 90.9426L0.948253 114.55L25.9011 106.159C29.0098 105.102 31.8674 103.445 34.29 101.286Z" fill="#F99192"/>
<path d="M106.176 26.8158L99.5682 19.5409L19.2607 92.5809L25.8686 99.8557L106.176 26.8158Z" fill="#FFD8C5"/>
<path opacity="0.5" d="M13.9029 88.3743C12.5022 90.2467 11.3272 92.2548 10.3508 94.3671L0.402951 115.995L23.2674 108.32C25.5002 107.562 27.6597 106.595 29.6875 105.414L13.9029 88.3743Z" fill="white"/>
<path d="M12.6844 111.462L6.07661 104.314L0.979553 115.406L12.6844 111.462Z" fill="#F97171"/>
<path d="M116.804 18.6092C115.816 14.3578 112.65 10.9267 108.451 9.5734C104.5 8.03962 100.061 8.80513 96.9481 11.5673L90.0928 17.6724L106.829 35.7467L113.152 30.0863C116.39 27.2194 117.765 22.8293 116.804 18.6092Z" fill="#3EB7B2"/>
</svg>
