<svg width="100" height="124" viewBox="0 0 100 124" fill="none" xmlns="http://www.w3.org/2000/svg">
<rect y="24" width="100" height="100" rx="25" fill="#FFD8C5"/>
<path d="M61.8976 72.6575C61.8976 72.6575 56.7207 98.9012 66.3776 118.559C69.9617 125.931 75.0391 121.803 74.6408 116.2C74.2426 110.598 73.3466 94.6747 73.3466 94.6747" fill="#3EB7B2"/>
<path d="M84.3974 72.6575C84.3974 72.6575 79.2205 98.9012 88.8775 118.559C92.4615 125.931 97.5389 121.803 97.1407 116.2C96.7424 110.598 95.8464 94.6747 95.8464 94.6747" fill="#3EB7B2"/>
<path d="M90.0722 79.7345C83.8001 96.444 59.8069 103.128 36.4111 94.6747C13.0152 86.2217 9.92898 55.948 16.2011 39.2385C22.4731 22.529 37.3071 36.4863 60.6034 45.0377C83.8997 53.589 96.3442 62.9267 90.0722 79.7345Z" fill="#3EB7B2"/>
<path d="M48.4251 33.3377C52.2266 23.1507 46.2328 11.5912 35.0376 7.51897C23.8423 3.44672 11.6849 8.40372 7.88335 18.5908C4.08178 28.7778 10.0756 40.3372 21.2709 44.4095C32.4661 48.4817 44.6235 43.5247 48.4251 33.3377Z" fill="#3EB7B2"/>
<path d="M19.0478 15.155C21.1069 14.8048 22.2615 11.5718 21.6266 7.93394C20.9917 4.2961 18.8079 1.631 16.7488 1.98126C14.6897 2.33153 13.5352 5.56453 14.17 9.20236C14.8049 12.8402 16.9888 15.5053 19.0478 15.155Z" fill="#3EB7B2"/>
<path d="M50.887 22.5522C53.7607 20.1905 55.0067 16.9906 53.6699 15.4052C52.3331 13.8197 48.9198 14.4489 46.0461 16.8107C43.1724 19.1724 41.9265 22.3723 43.2632 23.9577C44.6 25.5432 48.0133 24.914 50.887 22.5522Z" fill="#3EB7B2"/>
<path d="M14.8073 48.3796C14.8073 48.3796 9.63032 74.6233 19.2873 94.2815C22.8714 101.653 27.9488 97.5251 27.5506 91.9225C27.1523 86.3199 26.2563 70.3968 26.2563 70.3968" fill="#3EB7B2"/>
<path d="M42.7827 47.6917C42.7827 47.6917 37.6058 73.9353 47.2628 93.5935C50.8468 100.965 55.9242 96.8371 55.526 91.2345C55.1277 85.6319 54.2317 69.7088 54.2317 69.7088" fill="#3EB7B2"/>
<path d="M18.1922 17.9094C19.586 18.4992 20.6811 19.4821 21.4776 20.7598C21.7763 21.3496 22.6723 20.8581 22.3736 20.2684C21.4776 18.8923 20.2829 17.7128 18.69 17.1231C18.0926 16.8282 17.5949 17.7128 18.1922 17.9094Z" fill="#B2EEE6"/>
<path d="M33.2253 25.5761C34.8182 25.2813 36.3115 25.3795 37.8049 25.871C38.4022 26.0676 38.7009 25.0847 38.1035 24.8881C36.4111 24.2984 34.7186 24.2984 32.9266 24.5932C32.3293 24.7898 32.5284 25.7727 33.2253 25.5761Z" fill="#B2EEE6"/>
<path d="M23.0705 25.871C23.867 27.2471 25.4599 27.9351 27.0528 27.6403C27.6501 27.542 27.451 26.559 26.7541 26.6573C25.659 26.8539 24.4643 26.2642 23.867 25.2813C23.5683 24.7898 22.7719 25.2813 23.0705 25.871Z" fill="#B2EEE6"/>
<path d="M20.5816 30.0975C22.6723 31.8668 24.763 29.9009 25.5594 27.9351C25.7585 27.4436 24.9621 27.0504 24.6634 27.5419C24.0661 28.6231 23.5683 29.9009 24.1656 30.9822C24.6634 31.8668 25.5594 32.3583 26.555 32.1617C27.1523 32.0634 26.9532 31.0805 26.2563 31.1788C24.1656 31.6702 25.0616 28.8197 25.5594 28.0334C25.2608 27.9351 24.9621 27.7385 24.6634 27.6402C24.1656 28.8197 22.7718 30.589 21.3781 29.4095C20.7807 29.0163 20.0838 29.7043 20.5816 30.0975Z" fill="#B2EEE6"/>
<path d="M13.4135 21.7427C14.0108 21.7427 14.0108 20.7599 13.4135 20.7599C12.8162 20.7599 12.8162 21.7427 13.4135 21.7427Z" fill="#B2EEE6"/>
<path d="M16.4998 21.7427C17.0971 21.7427 17.0971 20.7599 16.4998 20.7599C15.9024 20.7599 15.9024 21.7427 16.4998 21.7427Z" fill="#B2EEE6"/>
<path d="M15.106 24.4949C15.7033 24.4949 15.7033 23.512 15.106 23.512C14.4091 23.512 14.4091 24.4949 15.106 24.4949Z" fill="#B2EEE6"/>
<path d="M37.108 30.7856C37.7054 30.7856 37.7054 29.8026 37.108 29.8026C36.5106 29.8026 36.5106 30.7856 37.108 30.7856Z" fill="#B2EEE6"/>
<path d="M39.3978 31.2771C39.3978 31.1788 39.3978 30.9822 39.3978 30.8839C38.9996 31.3754 39.6965 32.0635 40.0947 31.572C40.3934 31.2771 40.3934 30.8839 40.0947 30.589C39.5969 30.0975 38.9 30.7856 39.3978 31.2771Z" fill="#B2EEE6"/>
<path d="M37.6058 34.6189C38.2031 34.6189 38.2031 33.636 37.6058 33.636C37.0084 33.636 37.0084 34.6189 37.6058 34.6189Z" fill="#B2EEE6"/>
<path d="M23.867 45.7258C29.243 47.2001 35.0173 46.7087 40.1942 44.7429C40.7916 44.5463 40.4929 43.5634 39.8956 43.76C34.8182 45.7258 29.3426 46.2172 24.0661 44.7429C23.4687 44.6446 23.2696 45.6275 23.867 45.7258Z" fill="#B2EEE6"/>
<path d="M38.3027 71.8712C40.8911 72.8541 41.4885 75.7044 41.9863 78.1617C42.0858 78.7514 43.0814 78.5548 42.9818 77.8668C42.4841 75.0164 41.588 72.0677 38.6013 70.8883C37.9044 70.6917 37.7053 71.6746 38.3027 71.8712Z" fill="#B2EEE6"/>
<path d="M28.1478 70.8883C26.9532 71.8712 26.2563 73.3455 26.4554 74.9182C26.4554 75.5079 27.4509 75.5079 27.4509 74.9182C27.3514 73.6404 27.8492 72.4609 28.8447 71.5763C29.3425 71.1831 28.6456 70.4951 28.1478 70.8883Z" fill="#B2EEE6"/>
</svg>
