<svg width="114" height="142" viewBox="0 0 114 142" fill="none" xmlns="http://www.w3.org/2000/svg">
<rect x="8.00003" y="19.9999" width="100" height="100" rx="25" fill="#B2EEE6"/>
<path d="M34.9023 81.0613L19.2461 85.1293C18.2292 85.4036 17.4837 86.258 17.4151 87.3143L17.0681 92.2894C16.9156 94.6367 19.9095 95.7897 21.4079 93.9634C21.9737 93.3112 22.853 92.9588 23.7018 93.0758L32.603 94.4808L34.9023 81.0613Z" fill="#3EB7B2"/>
<path d="M58.2855 94.4029L62.5897 109.809C62.8575 110.813 62.4792 111.876 61.5846 112.463L57.3831 115.249C55.3952 116.553 52.8828 114.579 53.7389 112.388C54.0293 111.579 53.8992 110.653 53.3714 109.988L47.6809 103.105L58.2855 94.4029Z" fill="#3EB7B2"/>
<path d="M22.7899 128.437C28.3373 131.59 37.3677 126.408 42.96 116.863C48.5522 107.319 48.5887 97.0258 43.0413 93.8736C37.494 90.7214 28.4636 95.9034 22.8713 105.448C17.279 114.992 17.2426 125.285 22.7899 128.437Z" fill="#F97171"/>
<path d="M47.7224 104.868C48.7308 105.441 49.9946 105.369 50.9603 104.764C62.6437 97.127 72.7905 86.7945 80.2933 73.9874C91.1872 55.3921 94.7561 34.6995 91.8687 15.0156C91.5887 13.0947 89.5719 11.9485 87.7433 12.6711C69.1141 20.0663 52.6384 33.4846 41.7712 52.0343C34.2683 64.8413 30.2637 78.6645 29.3978 92.4488C29.3222 93.6209 29.9185 94.6888 30.9269 95.2618L47.7491 104.822L47.7224 104.868Z" fill="#FFD8C5"/>
<path d="M60.3606 64.2052C65.6102 67.1881 72.3449 65.3755 75.4029 60.1564C78.4609 54.9374 76.6843 48.2883 71.4347 45.3053C66.185 42.3224 59.4504 44.135 56.3924 49.3541C53.3343 54.5731 55.111 61.2222 60.3606 64.2052Z" fill="white"/>
<path d="M64.4573 26.0061L91.7936 41.541C93.1736 32.7047 93.1299 23.7899 91.8577 15.0904C91.5772 13.1651 89.5557 12.0163 87.7228 12.7405C79.4388 16.0094 71.5802 20.4334 64.4573 26.0061Z" fill="#F99192"/>
<path d="M37.1014 103.985C35.9094 103.307 35.4349 101.823 35.9917 100.559L40.4731 90.4067C41.1176 88.8894 42.9123 88.3295 44.3336 89.1371L46.5801 90.4138C48.0014 91.2214 48.3807 93.0775 47.3961 94.3409L40.714 103.243C39.8095 104.369 38.2934 104.662 37.1014 103.985Z" fill="#3EB7B2"/>
</svg>
