<svg width="117" height="100" viewBox="0 0 117 100" fill="none" xmlns="http://www.w3.org/2000/svg">
<rect x="8" width="100" height="100" rx="25" fill="#FFD8C5"/>
<path d="M81.513 98.9992C80.1468 100.523 77.7296 100.26 76.6262 98.5263C73.631 93.7446 69.9528 89.2782 65.5389 85.3373C57.7096 78.3486 48.5665 73.7771 39.0032 71.5702C29.4398 69.3107 20.2967 64.7392 12.4674 57.7506C7.52804 53.3367 3.48198 48.2923 0.381764 42.8275C-0.248789 41.724 -0.0911509 40.3052 0.802133 39.3069L35.0622 1.00076C36.4284 -0.523081 38.8455 -0.26035 39.949 1.47367C42.9441 6.25537 46.6223 10.7218 51.0362 14.6627C58.8656 21.6514 68.0086 26.2229 77.572 28.4298C87.1354 30.6368 96.2784 35.2608 104.055 42.2495C108.995 46.6633 113.041 51.7078 116.141 57.1725C116.771 58.276 116.614 59.6948 115.72 60.6931L81.513 98.9992Z" fill="#3EB7B2"/>
<path d="M58.2876 63.5832C65.7749 63.5832 71.8445 57.5135 71.8445 50.0263C71.8445 42.539 65.7749 36.4694 58.2876 36.4694C50.8003 36.4694 44.7307 42.539 44.7307 50.0263C44.7307 57.5135 50.8003 63.5832 58.2876 63.5832Z" fill="#B2EEE6"/>
<path d="M79.9366 87.8069C81.8519 87.8069 83.4046 86.2542 83.4046 84.3389C83.4046 82.4235 81.8519 80.8708 79.9366 80.8708C78.0212 80.8708 76.4685 82.4235 76.4685 84.3389C76.4685 86.2542 78.0212 87.8069 79.9366 87.8069Z" fill="#B2EEE6"/>
<path d="M36.586 19.1292C38.5013 19.1292 40.054 17.5765 40.054 15.6612C40.054 13.7458 38.5013 12.1931 36.586 12.1931C34.6706 12.1931 33.1179 13.7458 33.1179 15.6612C33.1179 17.5765 34.6706 19.1292 36.586 19.1292Z" fill="#B2EEE6"/>
</svg>
