<svg width="470" height="853" viewBox="0 0 470 853" fill="none" xmlns="http://www.w3.org/2000/svg">
<path d="M193.919 596.096L232.836 660.563C233.331 661.454 233.133 662.543 232.242 663.038L228.38 665.613C226.201 667.099 223.231 666.702 221.349 664.821L210.951 653.532L213.823 667.396C214.813 671.951 213.13 676.605 209.466 679.378L168.469 711.859C165.696 714.037 161.834 711.166 163.22 707.898C170.449 690.766 176.193 659.672 153.516 617.486" fill="#F99192"/>
<path d="M199.662 605.702C195.998 602.533 193.324 600.255 193.324 600.255L161.636 613.228L153.615 617.486C161.933 632.934 166.389 646.798 168.37 659.077C175.698 654.918 202.039 640.064 215.407 632.043L199.662 605.702Z" fill="#F99192"/>
<path d="M166.191 671.456C167.181 671.159 179.758 668.188 179.758 668.188" stroke="#7A7A7A" stroke-width="5" stroke-miterlimit="10"/>
<path d="M166.191 683.933C167.181 683.636 179.758 680.666 179.758 680.666" stroke="#7A7A7A" stroke-width="5" stroke-miterlimit="10"/>
<path d="M422.572 733.249L469.61 792.071C470.204 792.863 470.105 793.952 469.412 794.645L465.946 797.715C463.965 799.498 460.995 799.498 458.915 797.814L447.131 787.911L451.785 801.28C453.27 805.637 452.28 810.49 449.012 813.757L412.669 851.388C410.194 853.962 406.035 851.487 406.926 848.12C411.877 830.196 413.462 798.606 385.437 759.689" fill="#F99192"/>
<path d="M429.603 741.963C425.543 739.29 422.671 737.309 422.671 737.309L392.963 754.342L385.536 759.59C395.736 773.751 402.073 787.021 405.638 798.904C412.372 793.854 436.535 775.633 448.715 765.928L429.603 741.963Z" fill="#F99192"/>
<path d="M405.044 811.678C405.935 811.183 418.017 806.727 418.017 806.727" stroke="#7A7A7A" stroke-width="5" stroke-miterlimit="10"/>
<path d="M406.629 823.958C407.52 823.463 419.601 819.006 419.601 819.006" stroke="#7A7A7A" stroke-width="5" stroke-miterlimit="10"/>
<path d="M347.311 156.218C347.311 156.218 339.092 261.385 304.334 298.322" stroke="#3EB7B2" stroke-width="40" stroke-miterlimit="10"/>
<path d="M108.557 185.53C108.557 185.53 152.426 279.408 191.641 311.691" stroke="#3EB7B2" stroke-width="40" stroke-miterlimit="10"/>
<path d="M278.983 436.365C278.983 436.365 282.152 593.026 414.65 765.927" stroke="#7A7A7A" stroke-width="80" stroke-miterlimit="10"/>
<path d="M223.627 224.25C223.627 224.25 207.089 233.657 209.862 241.777C212.635 249.898 228.776 244.946 228.776 244.946" fill="#3A3144"/>
<path d="M261.752 459.538C288.277 459.538 309.78 438.035 309.78 411.51C309.78 384.984 288.277 363.481 261.752 363.481C235.227 363.481 213.724 384.984 213.724 411.51C213.724 438.035 235.227 459.538 261.752 459.538Z" fill="#B2EEE6"/>
<path d="M238.877 264.752C243.135 274.06 254.424 297.233 259.078 306.244" stroke="#3EB7B2" stroke-width="30" stroke-miterlimit="10"/>
<path d="M229.865 280.596L232.539 286.141C232.539 286.141 243.828 285.052 249.671 272.476C249.77 272.476 242.145 280.398 229.865 280.596Z" fill="#3A3144"/>
<path d="M226.499 280.893L224.914 280.299C215.011 276.734 209.763 265.841 213.328 255.839L220.854 234.846C224.815 223.755 236.995 218.011 248.086 221.972L253.434 223.854C264.525 227.815 270.268 239.995 266.307 251.086L261.554 264.257C256.405 278.616 240.758 286.043 226.499 280.893Z" fill="#3EB7B2"/>
<path d="M224.122 249.501C225.106 249.501 225.904 248.703 225.904 247.719C225.904 246.735 225.106 245.937 224.122 245.937C223.137 245.937 222.339 246.735 222.339 247.719C222.339 248.703 223.137 249.501 224.122 249.501Z" fill="#3A3144"/>
<path d="M224.419 241.777C225.31 241.777 226.201 241.876 227.093 242.074C228.281 242.371 228.875 240.49 227.588 240.193C226.499 239.896 225.508 239.797 224.419 239.896C223.132 239.797 223.132 241.777 224.419 241.777Z" fill="#3A3144"/>
<path d="M212.635 251.878C212.14 254.354 213.823 258.315 216.893 258.414L217.883 251.482C217.982 250.987 215.804 249.997 215.407 249.997C213.724 249.799 212.833 250.69 212.635 251.878Z" fill="#3EB7B2"/>
<path d="M297.996 285.449L211.644 301.095C195.899 303.967 185.798 319.415 189.561 334.962L204.217 395.765C205.406 400.518 209.862 403.786 214.714 403.39L316.019 395.269C321.267 394.873 325.327 390.318 325.228 385.07L323.05 305.848C322.654 292.776 310.771 283.171 297.996 285.449Z" fill="#F99192"/>
<path d="M179.263 633.132C179.263 633.132 77.3638 486.671 84.1966 448.942C90.9305 411.213 265.713 450.13 270.367 446.961C270.367 446.961 288.39 458.449 272.546 403.291" stroke="#595959" stroke-width="80" stroke-miterlimit="10"/>
<path d="M220.359 257.622L225.112 256.532C225.805 256.334 226.4 256.928 226.301 257.622C226.003 259.701 225.211 263.563 222.537 263.86C219.765 264.157 219.27 260.889 219.27 259.107C219.171 258.414 219.666 257.721 220.359 257.622Z" fill="#3A3144"/>
<path d="M222.438 263.86C224.32 263.662 225.31 261.781 225.805 259.998C223.726 259.404 221.448 261.286 220.062 262.771C220.557 263.563 221.349 264.058 222.438 263.86Z" fill="#8AD6CC"/>
<path d="M212.536 233.558C212.041 234.251 233.034 235.638 233.034 235.638L237.59 232.271V236.826L244.026 239.401V249.997C244.026 249.997 244.323 242.867 249.176 244.946C254.028 247.026 252.543 254.057 247.888 256.632L248.284 285.349C248.284 287.33 250.166 288.815 252.048 288.419L274.626 283.765C275.913 283.468 276.804 282.478 276.903 281.19C277.596 271.09 279.181 228.112 252.84 221.774C252.84 221.675 229.37 210.485 212.536 233.558Z" fill="#3A3144"/>
<path d="M181.54 298.223C181.54 298.223 200.058 321.098 224.617 328.525" stroke="#F99192" stroke-width="60" stroke-miterlimit="10"/>
<path d="M321.663 272.476C318.396 283.369 310.077 295.351 295.223 323.673" stroke="#F99192" stroke-width="60" stroke-miterlimit="10"/>
<path d="M231.945 401.904C231.945 401.904 307.899 437.95 318.297 436.266C318.297 436.266 319.287 418.64 311.068 392.397C307.998 382.891 238.382 396.557 231.945 401.904Z" fill="#595959"/>
<path d="M272.15 412.005C276.408 417.55 280.963 422.997 285.717 428.146C286.608 429.038 287.994 427.651 287.103 426.76C282.449 421.71 277.993 416.461 273.833 411.015C273.14 410.024 271.457 411.015 272.15 412.005Z" fill="#3A3144"/>
<path d="M366.919 159.684L327.407 158.693C327.407 158.693 327.902 122.846 348.599 124.529C371.672 126.51 366.919 159.684 366.919 159.684Z" fill="#3EB7B2"/>
<path d="M323.545 124.331C324.436 130.471 325.625 136.61 327.209 142.552C328.298 146.81 329.883 158.099 336.716 155.525C338.993 154.633 340.974 151.761 341.964 149.682C343.152 147.107 343.35 144.334 342.855 141.562C341.766 136.313 337.904 131.461 332.755 129.777C327.902 128.193 325.823 135.818 330.675 137.403C332.854 138.096 334.339 140.472 334.933 142.552C335.527 144.632 335.032 147.602 333.151 148.494C333.844 148.296 334.438 148.097 335.131 147.998C334.933 147.998 334.735 147.998 334.636 147.998C335.527 148.395 336.518 148.791 337.409 149.187C337.508 149.781 337.409 149.682 337.112 148.593C336.914 147.998 336.716 147.404 336.518 146.81C336.121 145.622 335.824 144.433 335.428 143.245C334.834 140.968 334.24 138.789 333.646 136.511C332.556 131.857 331.665 127.104 330.972 122.35C330.675 120.271 328.001 119.083 326.12 119.578C324.04 120.073 323.248 122.152 323.545 124.331Z" fill="#3EB7B2"/>
<path d="M340.479 110.863C340.776 118.885 339.29 126.708 336.32 134.135C334.834 137.7 340.578 139.185 342.063 135.719C345.232 127.797 346.717 119.38 346.519 110.863C346.321 107.001 340.38 107.001 340.479 110.863Z" fill="#3EB7B2"/>
<path d="M350.48 109.18C350.579 117.102 349.49 124.925 347.311 132.65C346.222 136.314 351.966 137.898 353.055 134.234C355.333 126.114 356.521 117.697 356.422 109.18C356.323 105.417 350.381 105.417 350.48 109.18Z" fill="#3EB7B2"/>
<path d="M360.383 111.656C360.284 120.469 358.7 128.986 355.828 137.304C354.541 140.968 360.284 142.453 361.571 138.888C364.641 130.174 366.226 120.964 366.325 111.656C366.424 107.893 360.482 107.893 360.383 111.656Z" fill="#3EB7B2"/>
<path d="M367.315 126.114C366.325 134.63 363.354 143.047 360.581 151.168C359.294 154.832 365.037 156.317 366.325 152.752C369.296 144.137 372.266 135.323 373.257 126.213C373.653 122.351 367.711 122.351 367.315 126.114Z" fill="#3EB7B2"/>
<path d="M336.419 133.937C338.3 136.115 339.785 138.591 340.974 141.265C341.469 142.453 343.251 141.463 342.657 140.274C341.37 137.502 339.686 134.927 337.706 132.55C337.013 131.56 335.527 132.946 336.419 133.937Z" fill="#3A3144"/>
<path d="M13.4913 266.336L210.06 59.5677C210.06 59.5677 211.842 48.7737 144.108 29.4635C123.807 23.6209 113.806 9.26195 109.944 1.93395C108.854 -0.244643 105.983 -0.640751 104.2 1.04271L61.8165 43.4263C60.7272 44.5156 60.4301 46.2981 61.2224 47.6844C65.4805 55.5076 81.5229 80.0663 118.46 85.7108C162.626 92.3456 166.092 105.912 166.092 105.912" fill="#F99192"/>
<path d="M91.9208 196.72L128.561 181.965C128.561 181.965 115.588 148.494 96.7731 157.407C75.6804 167.21 91.9208 196.72 91.9208 196.72Z" fill="#3EB7B2"/>
<path d="M93.8023 143.444C96.575 151.762 101.031 159.387 107.072 165.824C109.647 168.596 113.905 164.437 111.231 161.665C105.983 155.921 102.022 149.286 99.5458 141.859C98.3575 138.294 92.614 139.879 93.8023 143.444Z" fill="#3EB7B2"/>
<path d="M83.8995 145.424C86.7713 153.346 90.7324 160.872 95.7828 167.705C98.0604 170.775 103.21 167.804 100.932 164.734C96.1789 158.298 92.4159 151.366 89.6431 143.939C88.3557 140.275 82.6122 141.859 83.8995 145.424Z" fill="#3EB7B2"/>
<path d="M75.4823 151.267C78.9482 160.179 83.7015 168.3 89.8412 175.727C92.3169 178.697 96.476 174.439 94.0003 171.567C88.5538 165.032 84.1967 157.605 81.1268 149.782C79.8395 146.118 74.0959 147.702 75.4823 151.267Z" fill="#3EB7B2"/>
<path d="M74.393 167.903C78.8492 176.617 85.5831 184.341 91.8218 191.868C94.2974 194.838 98.4566 190.58 95.9809 187.708C90.0393 180.479 83.7015 173.25 79.4434 164.932C77.7599 161.466 72.6105 164.536 74.393 167.903Z" fill="#3EB7B2"/>
<path d="M61.8166 43.4263C60.7273 44.5156 60.4302 46.2981 61.2224 47.6844C65.4806 55.5076 81.523 80.0663 118.46 85.7108C162.626 92.3456 166.092 105.912 166.092 105.912" stroke="#3A3144" stroke-width="2" stroke-miterlimit="10"/>
<path d="M13.4913 266.336L210.06 59.5674" stroke="#3A3144" stroke-width="2" stroke-miterlimit="10"/>
<path d="M112.32 149.682C113.311 154.238 114.103 158.793 114.697 163.348C114.994 165.626 115.192 167.804 115.39 170.082C115.489 171.171 115.588 172.359 115.687 173.449C115.687 174.043 115.786 174.736 115.786 175.33C115.687 176.42 115.786 176.618 115.984 175.924C116.479 175.429 116.975 174.934 117.371 174.538C117.173 174.637 117.074 174.736 116.876 174.736C117.569 174.538 118.163 174.34 118.856 174.241C118.658 174.241 118.559 174.241 118.361 174.142C119.054 174.34 119.648 174.538 120.342 174.637C117.866 173.449 115.984 172.161 115.687 169.29C115.489 166.715 116.38 164.14 118.361 162.457C120.044 161.07 119.747 158.298 118.361 156.812C116.678 155.129 114.4 155.426 112.716 156.812C108.656 160.08 107.171 166.022 107.864 170.973C108.26 173.548 109.25 175.924 110.934 177.806C112.617 179.687 115.786 181.866 118.361 181.965C125.59 182.163 123.213 171.27 122.817 167.012C122.124 160.476 121.134 153.841 119.747 147.405C118.856 142.651 111.231 144.731 112.32 149.682Z" fill="#3EB7B2"/>
<path d="M109.548 161.169C108.557 164.041 107.963 167.012 107.666 170.181C107.567 171.468 109.548 171.468 109.647 170.181C109.845 167.309 110.439 164.437 111.429 161.763C111.924 160.476 109.944 159.981 109.548 161.169Z" fill="#3A3144"/>
<path d="M228.479 298.025C234.322 302.778 242.145 305.65 250.76 305.65C264.129 305.65 275.715 298.619 280.765 288.617L228.479 298.025Z" fill="#3EB7B2"/>
<path d="M192.433 324.762C189.958 331.595 189.462 338.824 190.948 345.954C191.245 347.241 193.126 346.647 192.829 345.459C191.443 338.725 191.938 331.793 194.315 325.356C194.711 324.168 192.829 323.574 192.433 324.762Z" fill="#3A3144"/>
<path d="M313.939 347.538C316.712 343.676 319.584 339.814 322.357 335.952C323.149 334.962 321.366 333.972 320.673 334.962C317.9 338.824 315.029 342.686 312.256 346.548C311.464 347.637 313.246 348.628 313.939 347.538Z" fill="#3A3144"/>
<path d="M267.298 153.247C267.298 150.97 263.039 148.989 256.504 147.702C250.859 146.612 246.403 142.156 245.314 136.512C244.026 129.976 242.046 125.718 239.768 125.718C237.49 125.718 235.51 129.976 234.223 136.512C233.133 142.156 228.677 146.612 223.033 147.702C216.497 148.989 212.239 150.97 212.239 153.247C212.239 155.525 216.497 157.505 223.033 158.793C228.677 159.882 233.133 164.338 234.223 169.983C235.51 176.519 237.49 180.777 239.768 180.777C242.046 180.777 244.026 176.519 245.314 169.983C246.403 164.338 250.859 159.882 256.504 158.793C263.039 157.505 267.298 155.525 267.298 153.247Z" fill="#FFD8C5"/>
<path d="M405.737 409.232C406.53 408.143 405.143 405.667 402.47 402.795C400.093 400.221 399.499 396.557 400.984 393.388C402.668 389.724 403.163 387.05 402.073 386.258C400.984 385.466 398.508 386.852 395.637 389.526C393.062 391.902 389.398 392.497 386.229 391.011C382.565 389.328 379.891 388.833 379.099 389.922C378.307 391.011 379.693 393.487 382.367 396.359C384.744 398.933 385.338 402.597 383.852 405.766C382.169 409.43 381.674 412.104 382.763 412.896C383.852 413.688 386.328 412.302 389.2 409.628C391.775 407.252 395.439 406.657 398.607 408.143C402.271 409.826 405.044 410.321 405.737 409.232Z" fill="#FFD8C5"/>
<path d="M26.86 276.041C27.6522 274.951 26.2658 272.476 23.5921 269.604C21.2155 267.029 20.6213 263.365 22.1067 260.196C23.7902 256.532 24.2853 253.859 23.196 253.066C22.1067 252.274 19.631 253.661 16.7593 256.334C14.1846 258.711 10.5206 259.305 7.35169 257.82C3.68769 256.136 1.01396 255.641 0.221739 256.73C-0.570477 257.82 0.815901 260.295 3.48963 263.167C5.86628 265.742 6.46044 269.406 4.97504 272.575C3.29158 276.239 2.79644 278.913 3.88574 279.705C4.97504 280.497 7.45071 279.111 10.3225 276.437C12.8972 274.06 16.5612 273.466 19.7301 274.951C23.295 276.536 26.0678 277.13 26.86 276.041Z" fill="#FFD8C5"/>
<path d="M88.6528 343.181C90.2373 341.597 88.6529 337.24 84.8898 331.694C81.6219 326.941 81.6219 320.603 84.8898 315.85C88.6529 310.304 90.2373 305.947 88.6528 304.363C87.0684 302.778 82.7112 304.363 77.1657 308.126C72.4124 311.394 66.0747 311.394 61.3214 308.126C55.7759 304.363 51.4187 302.778 49.8343 304.363C48.2498 305.947 49.8343 310.304 53.5973 315.85C56.8652 320.603 56.8652 326.941 53.5973 331.694C49.8343 337.24 48.2498 341.597 49.8343 343.181C51.4187 344.766 55.7759 343.181 61.3214 339.418C66.0747 336.15 72.4124 336.15 77.1657 339.418C82.6122 343.181 87.0684 344.766 88.6528 343.181Z" fill="#FFD8C5"/>
<path d="M440.892 304.66C441.684 303.867 440.892 301.491 438.911 298.619C437.228 296.143 437.228 292.776 438.911 290.301C440.892 287.429 441.684 285.052 440.892 284.26C440.1 283.468 437.723 284.26 434.851 286.241C432.376 287.924 429.009 287.924 426.533 286.241C423.661 284.26 421.285 283.468 420.492 284.26C419.7 285.052 420.492 287.429 422.473 290.301C424.156 292.776 424.156 296.143 422.473 298.619C420.492 301.491 419.7 303.867 420.492 304.66C421.285 305.452 423.661 304.66 426.533 302.679C429.009 300.996 432.376 300.996 434.851 302.679C437.822 304.66 440.1 305.452 440.892 304.66Z" fill="#FFD8C5"/>
<path d="M183.026 199.889C183.901 199.889 184.61 199.18 184.61 198.305C184.61 197.43 183.901 196.72 183.026 196.72C182.151 196.72 181.441 197.43 181.441 198.305C181.441 199.18 182.151 199.889 183.026 199.889Z" fill="#FFD8C5"/>
<path d="M135.889 341.201C137.475 341.201 138.761 339.915 138.761 338.329C138.761 336.743 137.475 335.457 135.889 335.457C134.303 335.457 133.017 336.743 133.017 338.329C133.017 339.915 134.303 341.201 135.889 341.201Z" fill="#FFD8C5"/>
<path d="M91.6237 277.229C92.9362 277.229 94.0003 276.165 94.0003 274.852C94.0003 273.54 92.9362 272.476 91.6237 272.476C90.3111 272.476 89.247 273.54 89.247 274.852C89.247 276.165 90.3111 277.229 91.6237 277.229Z" fill="#FFD8C5"/>
<path d="M11.5108 341.3C15.0111 341.3 17.8486 338.462 17.8486 334.962C17.8486 331.462 15.0111 328.624 11.5108 328.624C8.01059 328.624 5.1731 331.462 5.1731 334.962C5.1731 338.462 8.01059 341.3 11.5108 341.3Z" fill="#FFD8C5"/>
<path d="M61.8165 371.503C62.6369 371.503 63.3019 370.838 63.3019 370.017C63.3019 369.197 62.6369 368.532 61.8165 368.532C60.9962 368.532 60.3311 369.197 60.3311 370.017C60.3311 370.838 60.9962 371.503 61.8165 371.503Z" fill="#FFD8C5"/>
<path d="M410.392 223.655C411.814 223.655 412.966 222.503 412.966 221.081C412.966 219.659 411.814 218.506 410.392 218.506C408.97 218.506 407.817 219.659 407.817 221.081C407.817 222.503 408.97 223.655 410.392 223.655Z" fill="#FFD8C5"/>
<path d="M395.34 259.503C396.98 259.503 398.31 258.173 398.31 256.532C398.31 254.892 396.98 253.562 395.34 253.562C393.699 253.562 392.369 254.892 392.369 256.532C392.369 258.173 393.699 259.503 395.34 259.503Z" fill="#FFD8C5"/>
<path d="M456.934 263.068C459.997 263.068 462.48 260.585 462.48 257.523C462.48 254.46 459.997 251.977 456.934 251.977C453.872 251.977 451.389 254.46 451.389 257.523C451.389 260.585 453.872 263.068 456.934 263.068Z" fill="#FFD8C5"/>
<path d="M382.367 313.374C384.336 313.374 385.932 311.778 385.932 309.809C385.932 307.84 384.336 306.244 382.367 306.244C380.398 306.244 378.802 307.84 378.802 309.809C378.802 311.778 380.398 313.374 382.367 313.374Z" fill="#FFD8C5"/>
<path d="M416.63 348.529C418.654 348.529 420.294 346.888 420.294 344.865C420.294 342.841 418.654 341.201 416.63 341.201C414.607 341.201 412.966 342.841 412.966 344.865C412.966 346.888 414.607 348.529 416.63 348.529Z" fill="#FFD8C5"/>
<path d="M275.22 189.788C276.368 189.788 277.299 188.857 277.299 187.708C277.299 186.56 276.368 185.629 275.22 185.629C274.071 185.629 273.14 186.56 273.14 187.708C273.14 188.857 274.071 189.788 275.22 189.788Z" fill="#FFD8C5"/>
<path d="M288.39 218.506C289.265 218.506 289.975 217.796 289.975 216.921C289.975 216.046 289.265 215.337 288.39 215.337C287.515 215.337 286.806 216.046 286.806 216.921C286.806 217.796 287.515 218.506 288.39 218.506Z" fill="#FFD8C5"/>
<path d="M176.589 158.397C179.269 158.397 181.441 156.224 181.441 153.544C181.441 150.864 179.269 148.692 176.589 148.692C173.909 148.692 171.737 150.864 171.737 153.544C171.737 156.224 173.909 158.397 176.589 158.397Z" fill="#FFD8C5"/>
<path d="M293.639 132.848C297.577 132.848 300.769 129.656 300.769 125.718C300.769 121.78 297.577 118.588 293.639 118.588C289.701 118.588 286.509 121.78 286.509 125.718C286.509 129.656 289.701 132.848 293.639 132.848Z" fill="#FFD8C5"/>
</svg>
