<svg  viewBox="0 0 559 450" fill="none" xmlns="http://www.w3.org/2000/svg">
<g opacity="0.25">
<path d="M438.892 33.0811L432.811 27H417.405C417.162 27 417 27.1622 417 27.4054V55.7838C417 56.473 417.527 57 418.216 57H438.486C438.73 57 438.892 56.8378 438.892 56.5946V33.0811Z" fill="#B2EEE6"/>
<path d="M432.811 27V33.0811H438.892L432.811 27Z" fill="#3EB7B2"/>
</g>
<path opacity="0.5" d="M471.205 291.772H195.521C189.138 291.772 184 286.634 184 280.251V93.0018C184 86.6183 189.138 81.4803 195.521 81.4803H471.205C477.537 81.4803 482.727 86.6183 482.727 93.0018V280.251C482.727 286.634 477.589 291.772 471.205 291.772Z" fill="#B2EEE6"/>
<path d="M471.205 81.4803H195.521C189.138 81.4803 184 86.6183 184 93.0018V100.164H482.727V93.0018C482.727 86.6183 477.589 81.4803 471.205 81.4803Z" fill="#3EB7B2"/>
<path d="M199.621 92.6385C200.625 92.6385 201.438 91.8252 201.438 90.8221C201.438 89.8189 200.625 89.0056 199.621 89.0056C198.618 89.0056 197.805 89.8189 197.805 90.8221C197.805 91.8252 198.618 92.6385 199.621 92.6385Z" fill="white"/>
<path d="M210.935 92.6385C211.939 92.6385 212.752 91.8252 212.752 90.8221C212.752 89.8189 211.939 89.0056 210.935 89.0056C209.932 89.0056 209.119 89.8189 209.119 90.8221C209.119 91.8252 209.932 92.6385 210.935 92.6385Z" fill="white"/>
<path d="M222.301 92.6385C223.304 92.6385 224.118 91.8252 224.118 90.8221C224.118 89.8189 223.304 89.0056 222.301 89.0056C221.298 89.0056 220.485 89.8189 220.485 90.8221C220.485 91.8252 221.298 92.6385 222.301 92.6385Z" fill="white"/>
<path d="M532.514 171H466.771C465.365 171 464.201 169.835 464.201 168.43V126.422C464.201 125.016 465.365 123.851 466.771 123.851H532.514C533.92 123.851 535.084 125.016 535.084 126.422V168.43C535.084 169.835 533.92 171 532.514 171Z" fill="#FFE2D9"/>
<path d="M532.514 168.189H466.771C465.365 168.189 464.201 167.024 464.201 165.618V123.57C464.201 122.165 465.365 121 466.771 121H532.514C533.92 121 535.084 122.165 535.084 123.57V165.618C535.084 167.024 533.92 168.189 532.514 168.189Z" fill="white"/>
<path d="M464 134.092L464.201 165.619C464.201 167.024 465.365 168.189 466.771 168.189H532.514C533.92 168.189 535.084 167.024 535.084 165.619L534.884 134.092H464Z" fill="#FFFDFD"/>
<path d="M464 134.092L464.201 167.988C464.201 169.394 465.365 170.558 466.771 170.558H532.514C533.92 170.558 535.084 169.394 535.084 167.988L534.884 134.092" fill="#FFFDFD"/>
<path d="M499.462 138.55H469.1L469.181 165.619H499.502L499.462 138.55Z" fill="#FFECE5"/>
<path d="M469.181 165.618H499.422V159.193L493.92 153.691C492.634 152.406 490.506 152.406 489.221 153.691C487.936 154.976 485.807 154.976 484.522 153.691L480.827 149.996C479.542 148.711 477.413 148.711 476.128 149.996L469.181 156.944V165.618Z" fill="#FFD8C5"/>
<path d="M472.153 131.241C474.016 131.241 475.526 129.731 475.526 127.868C475.526 126.004 474.016 124.494 472.153 124.494C470.289 124.494 468.779 126.004 468.779 127.868C468.779 129.731 470.289 131.241 472.153 131.241Z" fill="#FFECE5"/>
<path d="M489.381 149.715C491.777 149.715 493.719 147.773 493.719 145.378C493.719 142.982 491.777 141.04 489.381 141.04C486.986 141.04 485.044 142.982 485.044 145.378C485.044 147.773 486.986 149.715 489.381 149.715Z" fill="#FFFDFD"/>
<path d="M510.064 143.129L507.896 145.297L505.446 142.847C504.843 142.245 504.843 141.281 505.446 140.679C506.048 140.076 507.012 140.076 507.614 140.679L510.064 143.129Z" fill="#FFECE5"/>
<path d="M507.936 145.257L505.767 143.129L508.217 140.679C508.819 140.076 509.783 140.076 510.385 140.679C510.988 141.281 510.988 142.245 510.385 142.847L507.936 145.257Z" fill="#FFECE5"/>
<path d="M517.454 145.297C518.873 145.297 520.024 144.146 520.024 142.727C520.024 141.307 518.873 140.157 517.454 140.157C516.034 140.157 514.883 141.307 514.883 142.727C514.883 144.146 516.034 145.297 517.454 145.297Z" fill="#FFECE5"/>
<path d="M519.02 144.213L520.305 144.414L519.141 142.807" fill="#FFECE5"/>
<path d="M525.887 162.486L528.699 164.414C528.779 164.454 528.859 164.414 528.859 164.333V159.273C528.859 159.233 528.819 159.153 528.739 159.153H522.996C522.956 159.153 522.875 159.193 522.875 159.273V164.293C522.875 164.373 522.956 164.414 523.036 164.373L525.727 162.486C525.767 162.486 525.847 162.486 525.887 162.486Z" fill="#FFECE5"/>
<path d="M528.819 149.233H505.004V149.635H528.819V149.233Z" fill="#FFE2D9"/>
<path d="M528.819 151.12H505.004V151.522H528.819V151.12Z" fill="#FFE2D9"/>
<path d="M519.462 152.968H505.004V153.37H519.462V152.968Z" fill="#FFE2D9"/>
<path d="M306.967 113.971H259.98C258.976 113.971 258.143 113.139 258.143 112.134V65.837C258.143 64.8324 258.976 64 259.98 64H306.967C307.971 64 308.804 64.8324 308.804 65.837V112.163C308.804 113.168 307.971 113.971 306.967 113.971Z" fill="white"/>
<path d="M258 73.3571L258.144 112.163C258.144 113.168 258.976 114 259.98 114H306.967C307.971 114 308.804 113.168 308.804 112.163L308.66 73.3571H258Z" fill="#FFFDFD"/>
<path d="M308.66 73.3571H258L258.115 103.753H308.775L308.66 73.3571Z" fill="#FFECE5"/>
<path d="M258.115 103.753H308.775V101.112L299.561 91.8989C297.38 89.7175 293.85 89.7175 291.697 91.8989C289.516 94.0803 285.985 94.0803 283.832 91.8989L277.633 85.7278C275.451 83.5464 271.921 83.5464 269.768 85.7278L258.086 97.3811L258.115 103.753Z" fill="#FFD8C5"/>
<path d="M263.827 71.3192C265.158 71.3192 266.238 70.2398 266.238 68.9082C266.238 67.5766 265.158 66.4972 263.827 66.4972C262.495 66.4972 261.416 67.5766 261.416 68.9082C261.416 70.2398 262.495 71.3192 263.827 71.3192Z" fill="#FFECE5"/>
<path d="M288.74 87.4501C290.976 87.4501 292.788 85.6382 292.788 83.403C292.788 81.1679 290.976 79.356 288.74 79.356C286.505 79.356 284.693 81.1679 284.693 83.403C284.693 85.6382 286.505 87.4501 288.74 87.4501Z" fill="#FFFDFD"/>
<path d="M267.156 110.211L265.606 111.761L263.855 110.01C263.425 109.58 263.425 108.891 263.855 108.46C264.286 108.03 264.975 108.03 265.405 108.46L267.156 110.211Z" fill="#FFECE5"/>
<path d="M265.635 111.733L264.085 110.183L265.836 108.432C266.266 108.001 266.955 108.001 267.386 108.432C267.816 108.862 267.816 109.551 267.386 109.982L265.635 111.733Z" fill="#FFECE5"/>
<path d="M272.437 111.761C273.452 111.761 274.274 110.939 274.274 109.924C274.274 108.91 273.452 108.087 272.437 108.087C271.423 108.087 270.6 108.91 270.6 109.924C270.6 110.939 271.423 111.761 272.437 111.761Z" fill="#FFECE5"/>
<path d="M273.557 110.986L274.447 111.101L273.643 109.953" fill="#FFECE5"/>
<path d="M301.427 110.412L303.436 111.79C303.493 111.819 303.551 111.79 303.551 111.733V108.116C303.551 108.087 303.522 108.03 303.465 108.03H299.36C299.332 108.03 299.274 108.059 299.274 108.116V111.704C299.274 111.761 299.332 111.79 299.389 111.761L301.312 110.412C301.369 110.384 301.427 110.384 301.427 110.412Z" fill="#FFECE5"/>
<path d="M296.232 108.432H279.211V108.719H296.232V108.432Z" fill="#FFE2D9"/>
<path d="M296.232 109.781H279.211V110.068H296.232V109.781Z" fill="#FFE2D9"/>
<path d="M289.544 111.101H279.211V111.388H289.544V111.101Z" fill="#FFE2D9"/>
<path d="M494.008 225H463V325H494.008V225Z" fill="#F8DBCD"/>
<path d="M464.68 226.176L464.531 226.304L466.47 227.965L466.619 227.837L464.68 226.176Z" fill="white" fill-opacity="0.75"/>
<path d="M466.395 226.113L464.456 227.773L464.605 227.901L466.544 226.24L466.395 226.113Z" fill="white" fill-opacity="0.75"/>
<path d="M490.318 226.867L490.169 226.995L491.287 227.953L491.437 227.825L490.318 226.867Z" fill="white" fill-opacity="0.75"/>
<path d="M491.297 226.12L490.178 227.078L490.328 227.206L491.446 226.248L491.297 226.12Z" fill="white" fill-opacity="0.75"/>
<path d="M491.583 226.866L491.434 226.993L492.553 227.952L492.702 227.824L491.583 226.866Z" fill="white" fill-opacity="0.75"/>
<path d="M492.119 226L491 226.958L491.149 227.086L492.268 226.128L492.119 226Z" fill="white" fill-opacity="0.75"/>
<path d="M471.648 241.621L470.277 238.821L467.852 240.447V231.594L475.129 237.827L472.07 238.279L473.441 240.989L471.648 241.621ZM470.488 238.189L471.859 241.079L472.703 240.808L471.332 237.918L473.969 237.556L468.379 232.678V239.634L470.488 238.189Z" fill="white" fill-opacity="0.75"/>
<path d="M488.101 238.098L489.472 240.899L488.101 241.35L486.73 238.55L484.515 239.995V232.136L490.949 237.737L488.101 238.098Z" fill="white" fill-opacity="0.75"/>
<path d="M474.219 248.937L467.933 255.849L468.515 256.238L474.802 249.325L474.219 248.937Z" fill="white" fill-opacity="0.75"/>
<path d="M470.805 249.842L469.223 250.023L468.906 251.468L468.484 250.023L467.008 249.842L468.484 249.481L468.906 248.216L469.223 249.481L470.805 249.842Z" fill="white" fill-opacity="0.75"/>
<path d="M474.18 247.584L473.23 247.764L473.125 248.577L472.914 247.764L471.965 247.584L472.914 247.403L473.125 246.68L473.23 247.403L474.18 247.584Z" fill="white" fill-opacity="0.75"/>
<path d="M475.234 252.01L474.707 252.1L474.602 252.552L474.496 252.1L473.969 252.01L474.496 251.92L474.602 251.468L474.707 251.92L475.234 252.01Z" fill="white" fill-opacity="0.75"/>
<path d="M489.153 273.703L482.867 280.615L483.449 281.004L489.736 274.091L489.153 273.703Z" fill="white" fill-opacity="0.75"/>
<path d="M488.101 253.817L489.472 256.617L488.101 257.069L486.73 254.268L484.515 255.804V247.854L490.949 253.455L488.101 253.817Z" fill="white" fill-opacity="0.75"/>
<path d="M483.883 252.733C482.512 252.733 481.562 252.371 481.141 251.739C480.613 250.836 481.035 248.938 484.305 247.403C486.941 246.138 489.578 246.68 490.211 247.583C490.527 247.945 490.527 248.487 490.316 249.119C490 250.113 488.84 251.468 486.73 252.281C485.676 252.552 484.726 252.733 483.883 252.733ZM487.574 247.132C486.73 247.132 485.676 247.312 484.621 247.854C481.668 249.209 481.246 250.926 481.668 251.649C482.09 252.371 484.199 252.823 486.519 251.92C488.523 251.197 489.578 249.932 489.894 249.029C490.105 248.577 490 248.125 489.894 247.854C489.473 247.403 488.629 247.132 487.574 247.132Z" fill="white" fill-opacity="0.75"/>
<path d="M482.512 253.275C482.195 253.275 481.773 253.184 481.562 252.823C481.246 252.462 481.246 252.191 481.457 251.829C481.668 251.468 482.195 251.197 482.722 251.197C483.144 251.197 483.566 251.378 483.777 251.739C484.094 252.281 483.777 252.823 483.355 253.094C483.039 253.275 482.722 253.275 482.512 253.275ZM481.879 252.642C482.195 253.004 482.617 252.913 482.933 252.733C483.25 252.552 483.461 252.281 483.25 251.92C483.144 251.649 482.828 251.649 482.617 251.649C482.301 251.649 481.879 251.829 481.773 252.1C481.668 252.281 481.773 252.462 481.879 252.642Z" fill="white" fill-opacity="0.75"/>
<path d="M483.883 254.449L483.566 254.088C483.672 253.997 483.883 253.817 483.883 253.726C483.883 253.455 483.25 253.184 483.039 253.094L483.25 252.733C483.355 252.733 484.305 253.094 484.41 253.726C484.41 253.997 484.305 254.268 483.883 254.449Z" fill="white" fill-opacity="0.75"/>
<path d="M468.062 264.115C468.062 264.115 469.855 262.579 473.019 261.857L474.601 263.212C473.758 265.922 471.965 267.458 471.965 267.458C469.434 266.825 467.219 268.542 467.219 268.542L467.008 268.361L470.277 265.561C470.594 265.741 470.91 265.651 471.121 265.47C471.437 265.199 471.437 264.838 471.121 264.567C470.805 264.296 470.383 264.296 470.066 264.567C469.855 264.748 469.75 265.109 469.961 265.29L466.691 268.09H466.797C466.797 268.09 468.801 266.283 468.062 264.115Z" fill="white" fill-opacity="0.75"/>
<path d="M472.567 261.694L474.953 263.738L475.923 262.907L473.536 260.863L472.567 261.694Z" fill="white" fill-opacity="0.75"/>
<path d="M492.004 259.417H479.559V269.354H492.004V259.417Z" fill="#FFD8C5"/>
<path d="M484.094 264.115C484.094 264.115 485.887 262.58 489.051 261.857L490.633 263.212C489.789 265.922 487.996 267.458 487.996 267.458C485.465 266.825 483.25 268.542 483.25 268.542L483.144 268.451L486.414 265.651C486.73 265.832 487.047 265.741 487.258 265.561C487.574 265.29 487.574 264.928 487.258 264.657C486.941 264.386 486.519 264.386 486.203 264.657C485.992 264.838 485.887 265.199 486.098 265.38L482.828 268.18L482.723 268.09C482.723 268.09 484.832 266.283 484.094 264.115Z" fill="white" fill-opacity="0.75"/>
<path d="M488.456 261.643L490.843 263.688L491.812 262.857L489.426 260.813L488.456 261.643Z" fill="white" fill-opacity="0.75"/>
<path d="M482.933 268.451C482.195 268.451 481.562 268.18 481.246 267.729C480.929 267.277 480.719 266.283 481.668 264.567C481.984 263.935 482.09 263.483 481.773 263.122C481.351 262.489 480.191 262.399 480.191 262.399L480.297 261.947C480.402 261.947 481.668 262.128 482.301 262.941C482.617 263.483 482.617 264.115 482.195 264.838C481.351 266.374 481.457 267.187 481.773 267.548C482.09 268 482.722 268.09 483.039 268.09V268.451H482.933Z" fill="white" fill-opacity="0.75"/>
<path d="M474.391 273.329V275.135H474.285H473.758C473.652 275.135 473.547 275.045 473.441 274.955C473.441 274.864 473.441 274.774 473.336 274.503H471.543V279.833C471.648 279.833 471.859 279.833 471.859 279.923C471.965 279.923 471.965 279.923 472.07 279.923H472.176C472.387 279.923 472.492 280.104 472.492 280.284V280.917H471.543H469.855H468.906V280.284C468.906 280.104 469.012 280.013 469.223 279.923C469.223 279.923 469.223 279.923 469.328 279.923C469.328 279.923 469.434 279.923 469.539 279.923C469.645 279.923 469.75 279.923 469.855 279.833V274.503H468.063C468.063 274.774 468.063 274.864 467.957 274.955C467.957 275.045 467.852 275.135 467.641 275.135H467.324H467.219V273.329H467.324H474.18H474.391Z" fill="white" fill-opacity="0.75"/>
<path d="M475.656 295.28H466.797V287.692H475.656V295.28ZM467.535 294.648H474.918V288.324H467.535V294.648Z" fill="white" fill-opacity="0.75"/>
<path d="M489.684 318.044H481.984V312.172H489.684V318.044ZM482.723 317.412H488.84V312.805H482.723V317.412Z" fill="white" fill-opacity="0.75"/>
<path d="M485.465 319.761H480.086V315.605H485.465V319.761ZM480.824 319.128H484.621V316.328H480.824V319.128Z" fill="white" fill-opacity="0.75"/>
<path d="M487.909 313.32L485.97 314.981L486.343 315.3L488.282 313.639L487.909 313.32Z" fill="white" fill-opacity="0.75"/>
<path d="M488.523 314.521H487.996V313.618H487.047V313.166H488.523V314.521Z" fill="white" fill-opacity="0.75"/>
<path d="M490.105 295.28H481.246V287.692H485.359C485.57 286.247 486.941 285.163 488.734 285.163C490.633 285.163 492.109 286.428 492.109 288.054C492.109 289.228 491.371 290.222 490.105 290.673V295.28ZM481.879 294.648H489.262V290.222L489.473 290.131C490.527 289.77 491.16 288.957 491.16 288.054C491.16 286.789 490 285.795 488.523 285.795C487.047 285.795 485.992 286.789 485.887 287.963V288.325H481.773V294.648H481.879Z" fill="white" fill-opacity="0.75"/>
<path d="M486.836 289.86C485.465 289.679 485.359 290.854 485.254 291.305C485.148 291.757 484.621 292.209 484.199 292.299C484.199 292.299 486.308 292.751 487.257 291.847C488.207 291.034 487.679 289.95 486.836 289.86Z" fill="white" fill-opacity="0.75"/>
<path d="M491.371 286.156L487.996 290.221C487.785 289.86 487.363 289.589 486.941 289.589C486.836 289.589 486.73 289.589 486.73 289.589L489.472 286.247H491.371V286.156Z" fill="white" fill-opacity="0.75"/>
<path d="M474.147 303.604L471.835 301.624L467.062 305.712L469.374 307.692L474.147 303.604Z" fill="white" fill-opacity="0.75"/>
<path d="M475.55 302.395L473.238 300.415L472.194 301.309L474.506 303.289L475.55 302.395Z" fill="white" fill-opacity="0.75"/>
<path d="M466.902 307.836L467.113 305.668L467.535 305.759L467.429 307.385L469.328 307.204V307.656L466.902 307.836Z" fill="white" fill-opacity="0.75"/>
<path d="M488.418 304.494C487.468 304.494 486.625 303.771 486.625 302.958C486.625 302.145 487.468 301.423 488.418 301.423C489.367 301.423 490.211 302.145 490.211 302.958C490.211 303.771 489.367 304.494 488.418 304.494ZM488.418 302.055C487.89 302.055 487.363 302.416 487.363 302.958C487.363 303.5 487.785 303.862 488.418 303.862C489.05 303.862 489.472 303.5 489.472 302.958C489.472 302.416 488.945 302.055 488.418 302.055Z" fill="white" fill-opacity="0.75"/>
<path d="M480.191 306.843L487.258 303.5L488.418 304.042C488.418 304.042 483.25 306.752 482.406 307.023C481.457 307.385 480.191 306.843 480.191 306.843Z" fill="white" fill-opacity="0.75"/>
<path d="M488.418 307.836C487.468 307.836 486.625 307.114 486.625 306.301C486.625 305.488 487.468 304.765 488.418 304.765C489.367 304.765 490.211 305.488 490.211 306.301C490.211 307.114 489.367 307.836 488.418 307.836ZM488.418 305.488C487.89 305.488 487.363 305.849 487.363 306.391C487.363 306.843 487.785 307.294 488.418 307.294C488.945 307.294 489.472 306.933 489.472 306.391C489.367 305.849 488.945 305.488 488.418 305.488Z" fill="white" fill-opacity="0.75"/>
<path d="M480.086 302.417L487.152 305.759L488.312 305.217C488.312 305.217 483.144 302.507 482.301 302.236C481.457 301.875 480.086 302.417 480.086 302.417Z" fill="white" fill-opacity="0.75"/>
<path d="M466.797 318.767V313.166L471.016 315.967L466.797 318.767ZM467.535 314.431V317.412L469.75 315.967L467.535 314.431Z" fill="white" fill-opacity="0.75"/>
<path d="M475.551 313.166V318.677L471.543 315.967L475.551 313.166Z" fill="white" fill-opacity="0.75"/>
<path d="M471.438 318.948H471.227V318.044H471.438V318.948ZM471.438 317.231H471.227V316.328H471.438V317.231ZM471.438 315.515H471.227V314.611H471.438V315.515ZM471.438 313.708H471.227V312.805H471.438V313.708Z" fill="white" fill-opacity="0.75"/>
<path d="M211.614 230H133V270H211.614V230Z" fill="#F8DBCD"/>
<path d="M137.151 233.556L134.816 231.556L135.075 231.333L137.411 233.333L137.151 233.556Z" fill="white" fill-opacity="0.75"/>
<path d="M135.075 233.556L134.816 233.333L137.151 231.333L137.411 231.556L135.075 233.556Z" fill="white" fill-opacity="0.75"/>
<path d="M206.837 232.299L206.653 232.456L208.029 233.634L208.213 233.477L206.837 232.299Z" fill="white" fill-opacity="0.75"/>
<path d="M208.044 231.222L206.668 232.401L206.852 232.558L208.228 231.38L208.044 231.222Z" fill="white" fill-opacity="0.75"/>
<path d="M208.391 232.293L208.208 232.45L209.583 233.628L209.767 233.471L208.391 232.293Z" fill="white" fill-opacity="0.75"/>
<path d="M209.61 231.226L208.234 232.405L208.418 232.562L209.793 231.384L209.61 231.226Z" fill="white" fill-opacity="0.75"/>
<path d="M147.14 236.333H146.881V262.555H147.14V236.333Z" fill="white" fill-opacity="0.75"/>
<path d="M158.426 236.333H158.167V262.555H158.426V236.333Z" fill="white" fill-opacity="0.75"/>
<path d="M141.302 238.778C139.097 238.778 138.059 240.333 138.059 240.333C138.059 240.333 139.097 241.889 141.302 241.889C143.508 241.889 144.675 240.333 144.675 240.333C144.675 240.333 143.508 238.778 141.302 238.778ZM141.302 241.667C140.394 241.667 139.746 241.111 139.746 240.333C139.746 239.555 140.394 239 141.302 239C142.081 239 142.859 239.555 142.859 240.333C142.859 241.111 142.081 241.667 141.302 241.667Z" fill="white" fill-opacity="0.75"/>
<path d="M142.47 240.333C142.47 240.889 141.951 241.333 141.302 241.333C140.654 241.333 140.135 240.889 140.135 240.333C140.135 239.778 140.654 239.333 141.302 239.333C141.951 239.333 142.47 239.778 142.47 240.333Z" fill="white" fill-opacity="0.75"/>
<path d="M141.302 247.889C139.097 247.889 138.059 249.444 138.059 249.444C138.059 249.444 139.097 251 141.302 251C143.508 251 144.675 249.444 144.675 249.444C144.675 249.444 143.508 247.889 141.302 247.889ZM141.302 250.778C140.394 250.778 139.746 250.222 139.746 249.444C139.746 248.667 140.394 248.111 141.302 248.111C142.081 248.111 142.859 248.667 142.859 249.444C142.859 250.222 142.081 250.778 141.302 250.778Z" fill="white" fill-opacity="0.75"/>
<path d="M142.47 249.556C142.47 250.111 141.951 250.556 141.302 250.556C140.654 250.556 140.135 250.111 140.135 249.556C140.135 249 140.654 248.556 141.302 248.556C141.951 248.444 142.47 248.889 142.47 249.556Z" fill="white" fill-opacity="0.75"/>
<path d="M141.302 256.667C139.097 256.667 138.059 258.222 138.059 258.222C138.059 258.222 139.097 259.778 141.302 259.778C143.508 259.778 144.675 258.222 144.675 258.222C144.675 258.222 143.508 256.667 141.302 256.667ZM141.302 259.556C140.394 259.556 139.746 259 139.746 258.222C139.746 257.444 140.394 256.889 141.302 256.889C142.081 256.889 142.859 257.444 142.859 258.222C142.859 259 142.081 259.556 141.302 259.556Z" fill="white" fill-opacity="0.75"/>
<path d="M142.47 258.222C142.47 258.778 141.951 259.222 141.302 259.222C140.654 259.222 140.135 258.778 140.135 258.222C140.135 257.667 140.654 257.222 141.302 257.222C141.951 257.222 142.47 257.667 142.47 258.222Z" fill="white" fill-opacity="0.75"/>
<path d="M208.371 245H136.243V245.222H208.371V245Z" fill="white" fill-opacity="0.75"/>
<path d="M208.371 253.778H136.243V254H208.371V253.778Z" fill="white" fill-opacity="0.75"/>
<path d="M166.859 242.222C166.729 242.222 166.729 242.111 166.729 242.111V238C166.729 237.889 166.859 237.889 166.859 237.889C166.988 237.889 166.988 238 166.988 238V242H169.453C169.583 242 169.583 242.111 169.583 242.111C169.583 242.222 169.453 242.222 169.453 242.222H166.859Z" fill="white" fill-opacity="0.75"/>
<path d="M173.864 239.333V242.111C173.864 242.222 173.734 242.222 173.734 242.222C173.604 242.222 173.604 242.111 173.604 242.111V241.667C173.345 242 172.826 242.333 172.177 242.333C171.269 242.333 170.491 241.667 170.491 240.778C170.491 239.889 171.269 239.222 172.177 239.222C172.696 239.222 173.215 239.444 173.604 239.889V239.444C173.604 239.333 173.734 239.333 173.734 239.333C173.734 239.111 173.864 239.222 173.864 239.333ZM173.475 240.667C173.475 240 172.826 239.444 172.048 239.444C171.269 239.444 170.621 240 170.621 240.667C170.621 241.333 171.269 241.889 172.048 241.889C172.826 242 173.475 241.444 173.475 240.667Z" fill="white" fill-opacity="0.75"/>
<path d="M175.291 239.334C175.291 239.222 175.42 239.222 175.42 239.222C175.55 239.222 175.55 239.334 175.55 239.334V241C175.55 241.556 176.069 242 176.718 242C177.366 242 177.885 241.556 177.885 241V239.334V239.222C177.885 239.222 177.885 239.222 178.015 239.222C178.015 239.222 178.015 239.222 178.145 239.222C178.145 239.222 178.145 239.222 178.145 239.334V241V241.111V242.111C178.145 242.889 177.366 243.556 176.458 243.556C176.199 243.556 175.939 243.445 175.68 243.445C175.55 243.445 175.55 243.334 175.55 243.222C175.55 243.111 175.68 243.111 175.809 243.111C175.939 243.222 176.199 243.222 176.458 243.222C177.236 243.222 177.885 242.667 177.885 242.111V241.889C177.626 242.111 177.236 242.334 176.718 242.334C175.939 242.334 175.291 241.778 175.291 241.111V239.334Z" fill="white" fill-opacity="0.75"/>
<path d="M179.572 240.667C179.572 239.778 180.35 239.111 181.388 239.111C182.296 239.111 183.074 239.778 183.204 240.556C183.204 240.667 183.074 240.667 183.074 240.667H180.091C180.091 241.333 180.739 241.889 181.518 241.889C182.037 241.889 182.426 241.667 182.685 241.333C182.685 241.222 182.815 241.222 182.945 241.333C183.074 241.333 183.074 241.444 182.945 241.556C182.685 242 182.037 242.222 181.518 242.222C180.35 242.222 179.572 241.556 179.572 240.667ZM179.961 240.444H182.685C182.555 239.889 182.037 239.444 181.258 239.444C180.61 239.444 180.091 239.889 179.961 240.444Z" fill="white" fill-opacity="0.75"/>
<path d="M184.112 239.333C184.112 239.222 184.242 239.222 184.242 239.222C184.372 239.222 184.372 239.333 184.372 239.333V240C184.372 240 184.372 240 184.372 239.889C184.631 239.556 185.15 239.111 185.799 239.111C185.928 239.111 185.928 239.222 185.928 239.222C185.928 239.333 185.799 239.333 185.799 239.333C185.28 239.333 185.02 239.556 184.761 239.889C184.501 240.222 184.372 240.444 184.372 240.667V242C184.372 242.111 184.242 242.111 184.242 242.111C184.112 242.111 184.112 242 184.112 242V239.333Z" fill="white" fill-opacity="0.75"/>
<path d="M190.21 238.222L189.431 238.556C189.431 238.556 189.431 238.556 189.302 238.556C189.172 238.556 189.172 238.556 189.172 238.444C189.172 238.333 189.172 238.222 189.302 238.222L190.339 237.889C190.469 237.889 190.599 237.889 190.599 238V238.111V242.222C190.599 242.333 190.469 242.333 190.469 242.333C190.339 242.333 190.339 242.222 190.339 242.222V238.222H190.21Z" fill="white" fill-opacity="0.75"/>
<path d="M166.859 251.444C166.729 251.444 166.729 251.333 166.729 251.333V247.222C166.729 247.111 166.859 247.111 166.859 247.111C166.988 247.111 166.988 247.222 166.988 247.222V251.222H169.453C169.583 251.222 169.583 251.333 169.583 251.333C169.583 251.444 169.453 251.444 169.453 251.444H166.859Z" fill="white" fill-opacity="0.75"/>
<path d="M173.864 248.444V251.222C173.864 251.333 173.734 251.333 173.734 251.333C173.604 251.333 173.604 251.222 173.604 251.222V250.778C173.345 251.111 172.826 251.444 172.177 251.444C171.269 251.444 170.491 250.778 170.491 249.889C170.491 249 171.269 248.333 172.177 248.333C172.696 248.333 173.215 248.555 173.604 249V248.555C173.604 248.444 173.734 248.444 173.734 248.444C173.734 248.333 173.864 248.444 173.864 248.444ZM173.475 249.889C173.475 249.222 172.826 248.667 172.048 248.667C171.269 248.667 170.621 249.222 170.621 249.889C170.621 250.555 171.269 251.111 172.048 251.111C172.826 251.111 173.475 250.555 173.475 249.889Z" fill="white" fill-opacity="0.75"/>
<path d="M175.291 248.444C175.291 248.333 175.42 248.333 175.42 248.333C175.55 248.333 175.55 248.444 175.55 248.444V250.111C175.55 250.667 176.069 251.111 176.718 251.111C177.366 251.111 177.885 250.667 177.885 250.111V248.444V248.333C177.885 248.333 177.885 248.333 178.015 248.333C178.015 248.333 178.015 248.333 178.145 248.333C178.145 248.333 178.145 248.333 178.145 248.444V250.111V250.222V251.222C178.145 252 177.366 252.667 176.458 252.667C176.199 252.667 175.939 252.555 175.68 252.555C175.55 252.555 175.55 252.444 175.55 252.333C175.55 252.222 175.68 252.222 175.809 252.222C175.939 252.333 176.199 252.333 176.458 252.333C177.236 252.333 177.885 251.778 177.885 251.222V251C177.626 251.222 177.236 251.444 176.718 251.444C175.939 251.444 175.291 250.889 175.291 250.222V248.444Z" fill="white" fill-opacity="0.75"/>
<path d="M179.572 249.889C179.572 249 180.35 248.333 181.388 248.333C182.296 248.333 183.074 249 183.204 249.778C183.204 249.889 183.074 249.889 183.074 249.889H180.091C180.091 250.555 180.739 251.111 181.518 251.111C182.037 251.111 182.426 250.889 182.685 250.555C182.685 250.444 182.815 250.444 182.945 250.555C183.074 250.555 183.074 250.667 182.945 250.778C182.685 251.222 182.037 251.444 181.518 251.444C180.35 251.444 179.572 250.778 179.572 249.889ZM179.961 249.667H182.685C182.555 249.111 182.037 248.667 181.258 248.667C180.61 248.667 180.091 249.111 179.961 249.667Z" fill="white" fill-opacity="0.75"/>
<path d="M184.112 248.444C184.112 248.333 184.242 248.333 184.242 248.333C184.372 248.333 184.372 248.444 184.372 248.444V249.111C184.372 249.111 184.372 249.111 184.372 249C184.631 248.667 185.15 248.222 185.799 248.222C185.928 248.222 185.928 248.333 185.928 248.333C185.928 248.444 185.799 248.444 185.799 248.444C185.28 248.444 185.02 248.667 184.761 249C184.501 249.333 184.372 249.556 184.372 249.778V251.111C184.372 251.222 184.242 251.222 184.242 251.222C184.112 251.222 184.112 251.111 184.112 251.111V248.444Z" fill="white" fill-opacity="0.75"/>
<path d="M189.431 251.222L191.896 249.333C192.155 249.111 192.285 248.778 192.285 248.444C192.285 248.222 192.155 247.889 191.896 247.667C191.636 247.444 191.247 247.333 190.858 247.333C190.469 247.333 190.209 247.444 189.95 247.667L189.69 247.889C189.561 248 189.561 248 189.431 247.889C189.301 247.778 189.301 247.778 189.431 247.667L189.69 247.444C190.079 247.222 190.469 247.111 190.858 247.111C191.247 247.111 191.766 247.222 192.155 247.556C192.415 247.889 192.544 248.222 192.544 248.556C192.544 249 192.415 249.333 192.025 249.667L189.95 251.333H192.415C192.544 251.333 192.544 251.444 192.544 251.444C192.544 251.556 192.415 251.556 192.415 251.556H189.561H189.431C189.301 251.333 189.301 251.222 189.431 251.222Z" fill="white" fill-opacity="0.75"/>
<path d="M166.859 260.667C166.729 260.667 166.729 260.555 166.729 260.555V256.444C166.729 256.333 166.859 256.333 166.859 256.333C166.988 256.333 166.988 256.444 166.988 256.444V260.444H169.453C169.583 260.444 169.583 260.555 169.583 260.555C169.583 260.667 169.453 260.667 169.453 260.667H166.859Z" fill="white" fill-opacity="0.75"/>
<path d="M173.864 257.667V260.444C173.864 260.556 173.734 260.556 173.734 260.556C173.604 260.556 173.604 260.444 173.604 260.444V260C173.345 260.333 172.826 260.667 172.177 260.667C171.269 260.667 170.491 260 170.491 259.111C170.491 258.222 171.269 257.556 172.177 257.556C172.696 257.556 173.215 257.778 173.604 258.222V257.778C173.604 257.667 173.734 257.667 173.734 257.667C173.734 257.556 173.864 257.556 173.864 257.667ZM173.475 259.111C173.475 258.444 172.826 257.889 172.048 257.889C171.269 257.889 170.621 258.444 170.621 259.111C170.621 259.778 171.269 260.333 172.048 260.333C172.826 260.333 173.475 259.778 173.475 259.111Z" fill="white" fill-opacity="0.75"/>
<path d="M175.291 257.667C175.291 257.556 175.42 257.556 175.42 257.556C175.55 257.556 175.55 257.667 175.55 257.667V259.333C175.55 259.889 176.069 260.333 176.718 260.333C177.366 260.333 177.885 259.889 177.885 259.333V257.667V257.556C177.885 257.556 177.885 257.556 178.015 257.556C178.015 257.556 178.015 257.556 178.145 257.556C178.145 257.556 178.145 257.556 178.145 257.667V259.333V259.444V260.444C178.145 261.222 177.366 261.889 176.458 261.889C176.199 261.889 175.939 261.778 175.68 261.778C175.55 261.778 175.55 261.667 175.55 261.556C175.55 261.444 175.68 261.444 175.809 261.444C175.939 261.556 176.199 261.556 176.458 261.556C177.236 261.556 177.885 261 177.885 260.444V260.222C177.626 260.444 177.236 260.667 176.718 260.667C175.939 260.667 175.291 260.111 175.291 259.444V257.667Z" fill="white" fill-opacity="0.75"/>
<path d="M179.572 259.111C179.572 258.222 180.35 257.556 181.388 257.556C182.296 257.556 183.074 258.222 183.204 259C183.204 259.111 183.074 259.111 183.074 259.111H180.091C180.091 259.778 180.739 260.333 181.518 260.333C182.037 260.333 182.426 260.111 182.685 259.778C182.685 259.667 182.815 259.667 182.945 259.778C183.074 259.778 183.074 259.889 182.945 260C182.685 260.444 182.037 260.667 181.518 260.667C180.35 260.667 179.572 260 179.572 259.111ZM179.961 258.889H182.685C182.555 258.333 182.037 257.889 181.258 257.889C180.61 257.889 180.091 258.222 179.961 258.889Z" fill="white" fill-opacity="0.75"/>
<path d="M184.112 257.667C184.112 257.555 184.242 257.555 184.242 257.555C184.372 257.555 184.372 257.667 184.372 257.667V258.333C184.372 258.333 184.372 258.333 184.372 258.222C184.631 257.889 185.15 257.444 185.799 257.444C185.928 257.444 185.928 257.555 185.928 257.555C185.928 257.667 185.799 257.667 185.799 257.667C185.28 257.667 185.02 257.889 184.761 258.222C184.501 258.555 184.372 258.778 184.372 259V260.333C184.372 260.444 184.242 260.444 184.242 260.444C184.112 260.444 184.112 260.333 184.112 260.333V257.667Z" fill="white" fill-opacity="0.75"/>
<path d="M192.545 256.444L191.247 257.667C191.636 257.778 191.896 257.889 192.155 258.111C192.545 258.444 192.674 258.778 192.674 259.222C192.674 259.667 192.545 260 192.155 260.333C191.766 260.667 191.377 260.778 190.858 260.778C190.469 260.778 189.95 260.667 189.561 260.333C189.431 260.222 189.431 260.222 189.561 260.111C189.691 260 189.691 260 189.82 260.111C190.08 260.333 190.469 260.444 190.858 260.444C191.247 260.444 191.636 260.333 191.896 260.111C192.155 259.889 192.285 259.555 192.285 259.222C192.285 258.889 192.155 258.555 191.896 258.333C191.636 258.111 191.247 258 190.858 258C190.858 258 190.728 258 190.728 257.889C190.599 257.778 190.599 257.778 190.728 257.667L192.026 256.555H190.08C189.95 256.555 189.95 256.444 189.95 256.444C189.95 256.333 190.08 256.333 190.08 256.333H192.545C192.674 256.333 192.674 256.444 192.674 256.444C192.545 256.333 192.545 256.444 192.545 256.444Z" fill="white" fill-opacity="0.75"/>
<path d="M161.67 245.667H159.335V253.222H161.67V245.667Z" fill="#FFD8C5"/>
<path d="M161.67 254.444H159.335V262H161.67V254.444Z" fill="white"/>
<path d="M161.67 236.556H159.335V244.111H161.67V236.556Z" fill="white"/>
<path d="M149.994 266.778H136.243V267H149.994V266.778Z" fill="white" fill-opacity="0.75"/>
<path d="M155.183 239.889H150.383V243.333H155.183V239.889Z" fill="white" fill-opacity="0.75"/>
<path d="M154.534 240.222H154.016V239.333C154.016 238.333 153.626 237.889 152.848 237.889C151.551 237.889 151.551 239.222 151.551 239.222V240.222H151.032V239.222C151.032 238.333 151.681 237.333 152.848 237.333C154.016 237.333 154.664 238 154.664 239.333V240.222H154.534Z" fill="white" fill-opacity="0.75"/>
<path d="M202.014 242.444C200.717 242.444 199.549 241.556 199.549 240.333C199.549 239.111 200.587 238.222 202.014 238.222C203.311 238.222 204.479 239.111 204.479 240.333C204.479 241.556 203.441 242.444 202.014 242.444ZM202.014 238.556C200.847 238.556 199.939 239.333 199.939 240.333C199.939 241.333 200.847 242.111 202.014 242.111C203.182 242.111 204.09 241.333 204.09 240.333C204.22 239.333 203.182 238.556 202.014 238.556Z" fill="white" fill-opacity="0.75"/>
<path d="M202.014 251.556C200.717 251.556 199.549 250.667 199.549 249.444C199.549 248.333 200.587 247.333 202.014 247.333C203.311 247.333 204.479 248.222 204.479 249.444C204.479 250.667 203.441 251.556 202.014 251.556ZM202.014 247.667C200.847 247.667 199.939 248.444 199.939 249.444C199.939 250.444 200.847 251.222 202.014 251.222C203.182 251.222 204.09 250.444 204.09 249.444C204.22 248.556 203.182 247.667 202.014 247.667Z" fill="white" fill-opacity="0.75"/>
<path d="M202.014 260.667C200.717 260.667 199.549 259.778 199.549 258.556C199.549 257.445 200.587 256.445 202.014 256.445C203.311 256.445 204.479 257.333 204.479 258.556C204.479 259.778 203.441 260.667 202.014 260.667ZM202.014 256.778C200.847 256.778 199.939 257.556 199.939 258.556C199.939 259.556 200.847 260.333 202.014 260.333C203.182 260.333 204.09 259.556 204.09 258.556C204.09 257.556 203.182 256.778 202.014 256.778Z" fill="white" fill-opacity="0.75"/>
<path opacity="0.5" d="M219.043 325.17C218.476 325.17 218.023 324.994 217.683 324.643C217.354 324.28 217.19 323.827 217.19 323.283C217.19 322.75 217.354 322.308 217.683 321.957C218.023 321.606 218.476 321.43 219.043 321.43C219.598 321.43 220.052 321.611 220.403 321.974C220.754 322.325 220.93 322.762 220.93 323.283C220.93 323.827 220.754 324.28 220.403 324.643C220.052 324.994 219.598 325.17 219.043 325.17ZM232.802 325H230.082V324.473L230.592 322.943H229.912C229.651 323.623 229.26 324.167 228.739 324.575C228.229 324.972 227.492 325.17 226.529 325.17C225.339 325.17 224.421 324.745 223.775 323.895C223.129 323.045 222.806 321.98 222.806 320.699C222.806 319.418 223.129 318.359 223.775 317.52C224.421 316.67 225.339 316.245 226.529 316.245C227.492 316.245 228.229 316.449 228.739 316.857C229.26 317.254 229.651 317.792 229.912 318.472H230.592L230.082 316.942V312.505H232.802V325ZM230.082 320.699C230.082 319.316 229.323 318.625 227.804 318.625C226.285 318.625 225.526 319.316 225.526 320.699C225.526 322.093 226.285 322.79 227.804 322.79C229.323 322.79 230.082 322.093 230.082 320.699ZM233.834 316.415H236.435L237.54 324.32H238.22L238.883 316.415H244.561L245.224 324.32H245.904L247.026 316.415H249.61L248.403 325H242.725L242.062 317.095H241.382L240.719 325H235.041L233.834 316.415ZM260.354 316.415H261.102V318.795H260.524C260.15 318.795 259.883 318.846 259.725 318.948C259.883 319.163 259.963 319.492 259.963 319.934C259.963 320.705 259.628 321.362 258.96 321.906C258.302 322.45 257.345 322.937 256.087 323.368C256.789 323.323 257.407 323.357 257.94 323.47C258.484 323.583 258.937 323.821 259.3 324.184C259.674 324.535 259.861 325 259.861 325.578C259.861 325.997 259.781 326.36 259.623 326.666C259.464 326.972 259.198 327.227 258.824 327.431C258.461 327.646 258.047 327.816 257.583 327.941C257.129 328.066 256.517 328.162 255.747 328.23C254.987 328.298 254.217 328.343 253.435 328.366C252.653 328.389 251.678 328.4 250.511 328.4V326.02C253.367 326.02 255.18 325.963 255.951 325.85C256.733 325.737 257.124 325.453 257.124 325C257.124 324.717 256.965 324.513 256.648 324.388C256.33 324.252 255.9 324.201 255.356 324.235C254.812 324.258 254.234 324.314 253.622 324.405C253.01 324.484 252.358 324.581 251.667 324.694C251.553 324.717 251.468 324.734 251.412 324.745L251.123 323.215C253.503 322.966 255.265 322.705 256.41 322.433V321.753C255.616 322.036 254.834 322.212 254.064 322.28C253.304 322.348 252.613 322.308 251.99 322.161C251.378 322.014 250.885 321.719 250.511 321.277C250.137 320.835 249.95 320.274 249.95 319.594C249.95 318.506 250.397 317.679 251.293 317.112C252.199 316.534 253.367 316.245 254.795 316.245C256.234 316.245 257.367 316.551 258.195 317.163C258.58 316.664 259.3 316.415 260.354 316.415ZM254.965 320.903C256.483 320.903 257.243 320.523 257.243 319.764C257.243 319.005 256.483 318.625 254.965 318.625C253.435 318.625 252.67 319.005 252.67 319.764C252.67 320.523 253.435 320.903 254.965 320.903Z" fill="#595959"/>
<path opacity="0.5" d="M523.043 217.17C522.476 217.17 522.023 216.994 521.683 216.643C521.354 216.28 521.19 215.827 521.19 215.283C521.19 214.75 521.354 214.308 521.683 213.957C522.023 213.606 522.476 213.43 523.043 213.43C523.598 213.43 524.052 213.611 524.403 213.974C524.754 214.325 524.93 214.762 524.93 215.283C524.93 215.827 524.754 216.28 524.403 216.643C524.052 216.994 523.598 217.17 523.043 217.17ZM527.146 208.415H529.866V208.942L529.356 210.472H530.036C530.297 209.792 530.682 209.254 531.192 208.857C531.713 208.449 532.456 208.245 533.419 208.245C534.609 208.245 535.527 208.67 536.173 209.52C536.819 210.37 537.142 211.435 537.142 212.716C537.142 213.997 536.819 215.062 536.173 215.912C535.527 216.751 534.609 217.17 533.419 217.17C532.456 217.17 531.713 216.972 531.192 216.575C530.682 216.167 530.297 215.623 530.036 214.943H529.356L529.866 216.473V220.23H527.146V208.415ZM529.866 212.716C529.866 214.099 530.625 214.79 532.144 214.79C533.663 214.79 534.422 214.099 534.422 212.716C534.422 211.322 533.663 210.625 532.144 210.625C530.625 210.625 529.866 211.322 529.866 212.716ZM546.342 214.637C546.342 216.326 545.011 217.17 542.347 217.17C540.817 217.17 539.678 216.887 538.93 216.32C538.194 215.742 537.825 214.932 537.825 213.889H540.545C540.545 214.716 541.174 215.13 542.432 215.13C543.226 215.13 543.622 214.937 543.622 214.552C543.622 214.359 543.526 214.212 543.333 214.11C543.141 214.008 542.721 213.849 542.075 213.634C541.939 213.589 541.837 213.555 541.769 213.532C541.713 213.509 541.514 213.447 541.174 213.345C540.834 213.232 540.613 213.158 540.511 213.124C540.421 213.09 540.234 213.016 539.95 212.903C539.667 212.79 539.474 212.693 539.372 212.614C539.27 212.535 539.123 212.421 538.93 212.274C538.738 212.127 538.602 211.985 538.522 211.849C538.454 211.702 538.386 211.526 538.318 211.322C538.25 211.118 538.216 210.897 538.216 210.659C538.216 209.9 538.545 209.31 539.202 208.891C539.86 208.46 540.778 208.245 541.956 208.245C543.328 208.245 544.353 208.54 545.033 209.129C545.713 209.707 546.053 210.449 546.053 211.356H543.333C543.333 211.039 543.214 210.784 542.976 210.591C542.738 210.387 542.393 210.285 541.939 210.285C541.271 210.285 540.936 210.449 540.936 210.778C540.936 210.959 541.089 211.124 541.395 211.271C541.713 211.407 542.296 211.611 543.146 211.883C544.268 212.246 545.011 212.552 545.373 212.801C546.019 213.232 546.342 213.844 546.342 214.637ZM557.189 217H554.469V216.473L554.979 214.943H554.299C554.038 215.623 553.647 216.167 553.126 216.575C552.616 216.972 551.879 217.17 550.916 217.17C549.726 217.17 548.808 216.745 548.162 215.895C547.516 215.045 547.193 213.98 547.193 212.699C547.193 211.418 547.516 210.359 548.162 209.52C548.808 208.67 549.726 208.245 550.916 208.245C551.879 208.245 552.616 208.449 553.126 208.857C553.647 209.254 554.038 209.792 554.299 210.472H554.979L554.469 208.942V204.505H557.189V217ZM554.469 212.699C554.469 211.316 553.709 210.625 552.191 210.625C550.672 210.625 549.913 211.316 549.913 212.699C549.913 214.093 550.672 214.79 552.191 214.79C553.709 214.79 554.469 214.093 554.469 212.699Z" fill="#595959"/>
<path opacity="0.5" d="M154.043 216.17C153.476 216.17 153.023 215.994 152.683 215.643C152.354 215.28 152.19 214.827 152.19 214.283C152.19 213.75 152.354 213.308 152.683 212.957C153.023 212.606 153.476 212.43 154.043 212.43C154.598 212.43 155.052 212.611 155.403 212.974C155.754 213.325 155.93 213.762 155.93 214.283C155.93 214.827 155.754 215.28 155.403 215.643C155.052 215.994 154.598 216.17 154.043 216.17ZM169.638 207.245C171.542 207.245 172.494 208.673 172.494 211.529V216H169.774V211.716C169.774 210.9 169.683 210.35 169.502 210.067C169.332 209.772 168.998 209.625 168.499 209.625C167.808 209.625 167.332 209.903 167.071 210.458C166.81 211.013 166.68 211.858 166.68 212.991V216H163.96V211.716C163.96 210.9 163.869 210.35 163.688 210.067C163.518 209.772 163.184 209.625 162.685 209.625C161.994 209.625 161.518 209.903 161.257 210.458C160.996 211.013 160.866 211.858 160.866 212.991V216H158.146V207.415H160.866V208.282L160.356 209.812H161.036C161.421 208.101 162.351 207.245 163.824 207.245C165.229 207.245 166.079 208.101 166.374 209.812H166.867C167.252 208.101 168.176 207.245 169.638 207.245ZM173.694 213.654C173.694 212.895 173.954 212.3 174.476 211.869C174.997 211.427 175.881 211.121 177.128 210.951L179.831 210.577C179.831 209.829 179.258 209.455 178.114 209.455C177.57 209.455 177.15 209.563 176.856 209.778C176.561 209.993 176.414 210.299 176.414 210.696H173.864C173.864 209.631 174.26 208.792 175.054 208.18C175.858 207.557 176.878 207.245 178.114 207.245C179.394 207.245 180.454 207.574 181.293 208.231C182.131 208.888 182.551 209.88 182.551 211.206V213.62H183.792V216H181.905C181.497 216 181.179 215.892 180.953 215.677C180.737 215.45 180.63 215.133 180.63 214.725V214.555L181.055 213.535H180.375C180.193 214.351 179.831 214.997 179.287 215.473C178.754 215.938 177.932 216.17 176.822 216.17C176.198 216.17 175.666 216.085 175.224 215.915C174.782 215.745 174.459 215.518 174.255 215.235C174.051 214.952 173.903 214.685 173.813 214.436C173.733 214.175 173.694 213.915 173.694 213.654ZM176.414 213.144C176.414 213.575 176.725 213.79 177.349 213.79C178.108 213.79 178.709 213.643 179.151 213.348C179.604 213.042 179.831 212.628 179.831 212.107L177.638 212.413C177.184 212.481 176.867 212.566 176.686 212.668C176.504 212.759 176.414 212.917 176.414 213.144ZM184.298 216L187.562 212.039V211.359L184.298 207.415H187.528L189.517 210.169L191.506 207.415H194.736L191.472 211.359V212.039L194.736 216H191.506L189.517 213.229L187.528 216H184.298Z" fill="#595959"/>
<path opacity="0.5" d="M404.043 313.17C403.476 313.17 403.023 312.994 402.683 312.643C402.354 312.28 402.19 311.827 402.19 311.283C402.19 310.75 402.354 310.308 402.683 309.957C403.023 309.606 403.476 309.43 404.043 309.43C404.598 309.43 405.052 309.611 405.403 309.974C405.754 310.325 405.93 310.762 405.93 311.283C405.93 311.827 405.754 312.28 405.403 312.643C405.052 312.994 404.598 313.17 404.043 313.17ZM407.806 308.699C407.806 307.305 408.237 306.217 409.098 305.435C409.959 304.642 411.093 304.245 412.498 304.245C413.745 304.245 414.81 304.574 415.694 305.231C416.578 305.888 417.048 306.801 417.105 307.968H414.385C414.328 307.571 414.13 307.248 413.79 306.999C413.461 306.75 413.031 306.625 412.498 306.625C411.863 306.625 411.376 306.806 411.036 307.169C410.696 307.532 410.526 308.042 410.526 308.699C410.526 309.368 410.69 309.883 411.019 310.246C411.359 310.609 411.852 310.79 412.498 310.79C413.031 310.79 413.461 310.665 413.79 310.416C414.13 310.167 414.328 309.844 414.385 309.447H417.105C417.048 310.614 416.578 311.527 415.694 312.184C414.81 312.841 413.745 313.17 412.498 313.17C411.093 313.17 409.959 312.779 409.098 311.997C408.237 311.204 407.806 310.104 407.806 308.699ZM416.767 313L420.031 309.039V308.359L416.767 304.415H419.997L421.986 307.169L423.975 304.415H427.205L423.941 308.359V309.039L427.205 313H423.975L421.986 310.229L419.997 313H416.767ZM428.051 313V305.707C428.051 305.242 428.176 304.885 428.425 304.636C428.686 304.387 429.049 304.268 429.513 304.279L435.14 304.415V306.795L430.771 306.693V313H428.051Z" fill="#595959"/>
<path opacity="0.5" d="M414.043 122.17C413.476 122.17 413.023 121.994 412.683 121.643C412.354 121.28 412.19 120.827 412.19 120.283C412.19 119.75 412.354 119.308 412.683 118.957C413.023 118.606 413.476 118.43 414.043 118.43C414.598 118.43 415.052 118.611 415.403 118.974C415.754 119.325 415.93 119.762 415.93 120.283C415.93 120.827 415.754 121.28 415.403 121.643C415.052 121.994 414.598 122.17 414.043 122.17ZM418.146 122V114.707C418.146 114.242 418.271 113.885 418.52 113.636C418.781 113.387 419.143 113.268 419.608 113.279L425.235 113.415V115.795L420.866 115.693V122H418.146ZM432.873 113.415H435.559L433.383 122H427.773L425.58 113.415H428.266L430.238 121.32H430.918L432.873 113.415ZM440.998 119.79L444.16 119.62V122L439.723 122.17C439.259 122.181 438.902 122.062 438.652 121.813C438.403 121.564 438.278 121.201 438.278 120.725V115.795H436.238V113.415H438.278V111.8L440.998 110.95V113.415H443.82V115.795H440.998V119.79Z" fill="#595959"/>
<g opacity="0.25">
<path d="M192.177 49.6511L185.556 36.3953C185.486 36.2558 185.312 36.186 185.173 36.2209C184.998 36.2558 184.894 36.3953 184.894 36.5697V47.8721C184.894 48.0116 184.964 48.1511 185.103 48.186C185.626 48.3953 185.939 48.8837 185.939 49.4418C185.939 50.2093 185.312 50.8372 184.545 50.8372C183.779 50.8372 183.151 50.2093 183.151 49.4418C183.151 48.8837 183.465 48.3953 183.988 48.1511C184.127 48.0814 184.197 47.9767 184.197 47.8372V36.5349C184.197 36.3604 184.092 36.2209 183.918 36.186C183.744 36.1511 183.604 36.2209 183.535 36.3604L176.914 49.6162C176.879 49.7209 176.879 49.8256 176.914 49.9302L180.05 56.2093C180.12 56.3139 180.224 56.4186 180.364 56.4186H188.727C188.867 56.4186 188.971 56.3488 189.041 56.2093L192.177 49.9302C192.212 49.8604 192.212 49.7209 192.177 49.6511Z" fill="white"/>
<path d="M188.518 33.7442H194.652C194.861 33.7442 195 33.6046 195 33.3953C195 33.186 194.861 33.0465 194.652 33.0465H185.591C185.382 33.0465 185.242 33.186 185.242 33.3953C185.208 33.5698 185.382 33.7442 185.556 33.7791C191.132 34.3023 195.349 38.9419 195.349 44.5581C195.349 44.7674 195.488 44.907 195.697 44.907C195.906 44.907 196.046 44.7674 196.046 44.5581C196.046 39.6046 192.944 35.3488 188.518 33.7442Z" fill="#B2EEE6"/>
<path d="M183.5 33.0465H174.439C174.23 33.0465 174.091 33.186 174.091 33.3953C174.091 33.6046 174.23 33.7442 174.439 33.7442H180.573C176.147 35.3488 173.045 39.6046 173.045 44.5581C173.045 44.7674 173.185 44.907 173.394 44.907C173.603 44.907 173.742 44.7674 173.742 44.5581C173.742 38.9419 177.959 34.3023 183.535 33.7791C183.709 33.7791 183.848 33.6046 183.848 33.3953C183.848 33.186 183.709 33.0465 183.5 33.0465Z" fill="#B2EEE6"/>
<path d="M189.424 57.814H179.667C179.458 57.814 179.318 57.9535 179.318 58.1628V61.6512C179.318 61.8605 179.458 62 179.667 62H189.424C189.633 62 189.773 61.8605 189.773 61.6512V58.1628C189.773 57.9535 189.633 57.814 189.424 57.814Z" fill="white"/>
<path d="M190.47 55.7209H178.621C178.412 55.7209 178.273 55.8605 178.273 56.0698V58.1628C178.273 58.3721 178.412 58.5116 178.621 58.5116H190.47C190.679 58.5116 190.818 58.3721 190.818 58.1628V56.0698C190.818 55.8605 190.679 55.7209 190.47 55.7209Z" fill="#F99192"/>
<path d="M185.591 32H183.5C183.291 32 183.152 32.1395 183.152 32.3488V34.4419C183.152 34.6512 183.291 34.7907 183.5 34.7907H185.591C185.8 34.7907 185.939 34.6512 185.939 34.4419V32.3488C185.939 32.1395 185.8 32 185.591 32Z" fill="#3EB7B2"/>
<path d="M174.439 44.2092H172.348C172.139 44.2092 172 44.3488 172 44.5581V46.6511C172 46.8604 172.139 46.9999 172.348 46.9999H174.439C174.648 46.9999 174.788 46.8604 174.788 46.6511V44.5581C174.788 44.3488 174.648 44.2092 174.439 44.2092Z" fill="#3EB7B2"/>
<path d="M196.742 44.2092H194.651C194.442 44.2092 194.303 44.3488 194.303 44.5581V46.6511C194.303 46.8604 194.442 46.9999 194.651 46.9999H196.742C196.951 46.9999 197.091 46.8604 197.091 46.6511V44.5581C197.091 44.3488 196.951 44.2092 196.742 44.2092Z" fill="#3EB7B2"/>
<path d="M195.697 34.7907C196.467 34.7907 197.091 34.166 197.091 33.3953C197.091 32.6247 196.467 32 195.697 32C194.927 32 194.303 32.6247 194.303 33.3953C194.303 34.166 194.927 34.7907 195.697 34.7907Z" fill="#3EB7B2"/>
<path d="M173.394 34.7907C174.164 34.7907 174.788 34.166 174.788 33.3953C174.788 32.6247 174.164 32 173.394 32C172.624 32 172 32.6247 172 33.3953C172 34.166 172.624 34.7907 173.394 34.7907Z" fill="#3EB7B2"/>
</g>
<path d="M284.295 243.295H283.136V242.522H283.523V242.136H284.295V243.295Z" fill="white"/>
<path d="M281.513 243.295H279.968V242.522H281.513V243.295ZM278.422 243.295H276.876V242.522H278.422V243.295ZM275.254 243.295H273.708V242.522H275.254V243.295ZM272.162 243.295H270.617V242.522H272.162V243.295ZM268.994 243.295H267.448V242.522H268.994V243.295ZM265.903 243.295H264.357V242.522H265.903V243.295ZM262.812 243.295H261.266V242.522H262.812V243.295ZM259.643 243.295H258.097V242.522H259.643V243.295ZM256.552 243.295H255.006V242.522H256.552V243.295ZM253.383 243.295H251.838V242.522H253.383V243.295ZM250.292 243.295H248.747V242.522H250.292V243.295ZM247.124 243.295H245.578V242.522H247.124V243.295ZM244.033 243.295H242.487V242.522H244.033V243.295Z" fill="white"/>
<path d="M240.864 243.295H239.705V242.136H240.478V242.523H240.864V243.295Z" fill="white"/>
<path d="M240.478 240.513H239.705V238.967H240.478V240.513ZM240.478 237.422H239.705V235.876H240.478V237.422ZM240.478 234.331H239.705V232.785H240.478V234.331ZM240.478 231.162H239.705V229.617H240.478V231.162ZM240.478 228.071H239.705V226.525H240.478V228.071ZM240.478 224.903H239.705V223.357H240.478V224.903ZM240.478 221.811H239.705V220.266H240.478V221.811ZM240.478 218.643H239.705V217.097H240.478V218.643ZM240.478 215.552H239.705V214.006H240.478V215.552ZM240.478 212.383H239.705V210.838H240.478V212.383ZM240.478 209.292H239.705V207.746H240.478V209.292ZM240.478 206.124H239.705V204.578H240.478V206.124ZM240.478 203.032H239.705V201.487H240.478V203.032Z" fill="white"/>
<path d="M240.477 199.864H239.705V198.705H240.864V199.478H240.477V199.864Z" fill="white"/>
<path d="M281.513 199.478H279.968V198.705H281.513V199.478ZM278.422 199.478H276.876V198.705H278.422V199.478ZM275.254 199.478H273.708V198.705H275.254V199.478ZM272.162 199.478H270.617V198.705H272.162V199.478ZM268.994 199.478H267.448V198.705H268.994V199.478ZM265.903 199.478H264.357V198.705H265.903V199.478ZM262.812 199.478H261.266V198.705H262.812V199.478ZM259.643 199.478H258.097V198.705H259.643V199.478ZM256.552 199.478H255.006V198.705H256.552V199.478ZM253.383 199.478H251.838V198.705H253.383V199.478ZM250.292 199.478H248.747V198.705H250.292V199.478ZM247.124 199.478H245.578V198.705H247.124V199.478ZM244.033 199.478H242.487V198.705H244.033V199.478Z" fill="white"/>
<path d="M284.295 199.864H283.522V199.478H283.136V198.705H284.295V199.864Z" fill="white"/>
<path d="M284.295 240.513H283.523V238.968H284.295V240.513ZM284.295 237.422H283.523V235.876H284.295V237.422ZM284.295 234.331H283.523V232.785H284.295V234.331ZM284.295 231.162H283.523V229.617H284.295V231.162ZM284.295 228.071H283.523V226.526H284.295V228.071ZM284.295 224.903H283.523V223.357H284.295V224.903ZM284.295 221.812H283.523V220.266H284.295V221.812ZM284.295 218.643H283.523V217.097H284.295V218.643ZM284.295 215.552H283.523V214.006H284.295V215.552ZM284.295 212.383H283.523V210.838H284.295V212.383ZM284.295 209.292H283.523V207.747H284.295V209.292ZM284.295 206.124H283.523V204.578H284.295V206.124ZM284.295 203.033H283.523V201.487H284.295V203.033Z" fill="white"/>
<path d="M242.873 240.127H237.386V245.614H242.873V240.127Z" fill="white"/>
<path d="M243.26 246H237V239.74H243.26V246ZM237.773 245.227H242.487V240.513H237.773V245.227Z" fill="white"/>
<path d="M242.873 218.256H237.386V223.743H242.873V218.256Z" fill="white"/>
<path d="M243.26 224.13H237V217.87H243.26V224.13ZM237.773 223.357H242.487V218.643H237.773V223.357Z" fill="white"/>
<path d="M242.873 196.386H237.386V201.873H242.873V196.386Z" fill="white"/>
<path d="M243.26 202.26H237V196H243.26V202.26ZM237.773 201.487H242.487V196.773H237.773V201.487Z" fill="white"/>
<path d="M286.613 240.127H281.127V245.614H286.613V240.127Z" fill="white"/>
<path d="M287 246H280.74V239.74H287V246ZM281.513 245.227H286.227V240.513H281.513V245.227Z" fill="white"/>
<path d="M286.614 218.256H281.127V223.743H286.614V218.256Z" fill="white"/>
<path d="M287 224.13H280.74V217.87H287V224.13ZM281.513 223.357H286.227V218.643H281.513V223.357Z" fill="white"/>
<path d="M286.614 196.386H281.127V201.873H286.614V196.386Z" fill="white"/>
<path d="M287 202.26H280.74V196H287V202.26ZM281.513 201.487H286.227V196.773H281.513V201.487Z" fill="white"/>
<path d="M264.743 196.386H259.256V201.873H264.743V196.386Z" fill="white"/>
<path d="M265.13 202.26H258.87V196H265.13V202.26ZM259.643 201.487H264.357V196.773H259.643V201.487Z" fill="white"/>
<path d="M264.743 240.127H259.256V245.614H264.743V240.127Z" fill="white"/>
<path d="M265.13 246H258.87V239.74H265.13V246ZM259.643 245.227H264.357V240.513H259.643V245.227Z" fill="white"/>
<path d="M262.502 226.216H253.77L250.369 235.722H253.692V236.572H246.969V235.722H249.056L260.338 205.428H263.971L275.099 235.722H277.108V236.572H262.58V235.722H265.748L262.502 226.216ZM254.156 225.212H262.116L258.252 213.62L254.156 225.212Z" fill="white"/>
<path d="M118.81 414.709C118.81 414.709 122.962 436.61 124.208 447.457C124.364 448.91 125.609 450 127.062 450H159.551C161.575 450 162.561 447.561 161.108 446.159C156.644 441.852 149.898 445.173 148.808 424.881C148.029 410.194 145.901 395.455 145.901 395.455" fill="#3A3144"/>
<path d="M118.81 414.709C118.81 414.709 122.962 436.61 124.208 447.457C124.364 448.91 125.609 450 127.062 450H159.551C161.575 450 162.561 447.561 161.108 446.159C156.644 441.852 149.898 445.173 148.808 424.881C148.029 410.194 145.901 395.455 145.901 395.455" fill="#3A3144"/>
<path d="M150.469 424.31C149.327 416.785 146.939 409.675 146.472 404.07L127.27 408.689L118.862 414.709C118.862 414.709 120.108 421.352 121.457 429.137C127.062 428.358 140.504 426.853 148.963 425.815C150.52 425.712 150.52 424.622 150.469 424.31Z" fill="#3A3144"/>
<path d="M147.043 432.51C148.081 431.991 149.171 431.628 150.313 431.369C150.624 431.317 150.52 430.798 150.157 430.85C148.963 431.109 147.874 431.524 146.784 432.043C146.472 432.199 146.732 432.666 147.043 432.51Z" fill="#F97171"/>
<path d="M147.718 435.832C148.808 435.313 149.898 434.949 151.091 434.742C151.403 434.69 151.299 434.171 150.935 434.223C149.69 434.43 148.548 434.846 147.406 435.365C147.147 435.572 147.406 435.987 147.718 435.832Z" fill="#F97171"/>
<path d="M149.482 439.205C150.365 438.686 151.299 438.323 152.337 438.115C152.648 438.063 152.544 437.544 152.181 437.596C151.143 437.856 150.157 438.219 149.223 438.738C148.912 438.946 149.171 439.413 149.482 439.205Z" fill="#F97171"/>
<path d="M113.257 425.037C103.552 338.003 74.3855 217.236 74.0741 215.991L114.399 206.182C115.645 211.216 144.5 330.738 154.465 420.418L113.257 425.037Z" fill="#7A7A7A"/>
<path d="M12.834 397.012C12.834 397.012 4.8936 417.875 0.274653 427.736C-0.348127 429.033 0.118958 430.642 1.36452 431.368L29.0782 448.391C30.7909 449.429 32.9187 447.872 32.3997 445.952C30.8428 439.932 23.3694 439.257 33.0744 421.404C40.0807 408.481 45.9971 394.832 45.9971 394.832" fill="#3A3144"/>
<path d="M12.834 397.012C12.834 397.012 4.8936 417.875 0.274653 427.736C-0.348127 429.033 0.118958 430.642 1.36452 431.368L29.0782 448.391C30.7909 449.429 32.9187 447.872 32.3997 445.952C30.8428 439.932 23.3694 439.257 33.0744 421.404C40.0807 408.481 45.9971 394.832 45.9971 394.832" fill="#3A3144"/>
<path d="M34.735 421.767C37.6932 414.761 39.3539 407.443 41.8969 402.461L23.1098 396.337L12.8339 397.012C12.8339 397.012 10.4466 403.343 7.48837 410.661C12.6782 412.945 24.8743 418.705 32.7109 422.234C34.0603 422.961 34.6312 422.027 34.735 421.767Z" fill="#3A3144"/>
<path d="M27.5212 426.957C28.663 427.061 29.8047 427.32 30.8946 427.684C31.206 427.787 31.3617 427.269 31.0503 427.165C29.9085 426.75 28.7668 426.542 27.5731 426.386C27.2098 426.386 27.2098 426.905 27.5212 426.957Z" fill="#F97171"/>
<path d="M26.3795 430.175C27.5732 430.279 28.7149 430.59 29.8567 431.005C30.1681 431.109 30.3238 430.642 30.0124 430.486C28.8706 430.019 27.677 429.76 26.4314 429.656C26.0681 429.604 26.0681 430.123 26.3795 430.175Z" fill="#F97171"/>
<path d="M26.12 433.964C27.1579 434.015 28.144 434.171 29.0782 434.534C29.3895 434.638 29.5452 434.119 29.2339 434.015C28.1959 433.652 27.1579 433.496 26.12 433.445C25.8086 433.393 25.8086 433.912 26.12 433.964Z" fill="#F97171"/>
<path d="M42.416 422.131L4.84158 404.485C36.9666 336.031 37.5894 333.852 44.8033 307.435C60.788 249.102 55.3386 202.653 55.2867 202.186L96.494 196.996C96.7535 199.175 103.137 251.645 84.8169 318.386C76.7207 348.227 75.3195 352.12 42.416 422.131Z" fill="#7A7A7A"/>
<path d="M114.088 206.286C114.088 206.286 56.6882 231.404 56.3249 230.989C55.9616 230.522 56.7401 221.959 55.4945 215.783C54.249 209.607 55.0275 203.068 57.8819 200.681" fill="#595959"/>
<path d="M77.6849 124.676L77.2886 139.357L93.8894 139.805L94.2857 125.124L77.6849 124.676Z" fill="#71D2C1"/>
<path d="M84.0385 131.967C84.0385 131.967 88.346 135.237 94.0029 134.355L94.2624 128.023L93.3283 128.075" fill="#3A3144"/>
<path d="M89.1246 132.746C81.5993 133.317 75.0082 127.66 74.4373 120.082L73.9703 113.647C73.4513 106.693 78.693 100.621 85.6474 100.102C92.6018 99.5826 98.6739 104.824 99.1928 111.779L99.8156 120.394C100.283 126.725 95.5081 132.227 89.1246 132.746Z" fill="#71D2C1"/>
<path d="M96.0789 107.264C96.0789 107.264 96.8573 113.751 98.8295 115.619C99.8155 116.553 102.514 109.495 100.075 106.485" fill="#3A3144"/>
<path d="M102.462 114.425C103.137 116.969 101.528 121.172 98.3104 121.432C98.3104 121.432 96.9092 114.27 96.9092 114.218C96.8054 113.751 99.037 112.609 99.4522 112.557C101.165 112.246 102.099 113.128 102.462 114.425Z" fill="#71D2C1"/>
<path d="M74.1259 104.357C74.1259 104.357 71.3234 107.834 71.531 110.741C71.7386 113.647 73.2437 116.761 73.2437 116.761L75.4753 115.308C75.4753 115.308 78.8487 113.232 77.4993 109.391" fill="#3A3144"/>
<path d="M70.493 116.761C70.1816 119.408 72.4132 123.3 75.6309 123.093L75.9423 115.775C75.9423 115.308 73.6069 114.478 73.1917 114.478C71.4791 114.426 70.6487 115.412 70.493 116.761Z" fill="#71D2C1"/>
<path d="M52.2768 144.734L47.3464 202.756C47.5021 205.248 49.5262 207.168 52.0173 207.168L118.084 206.493C118.188 206.493 118.343 206.493 118.447 206.493C121.094 206.234 122.858 203.639 122.288 200.992L114.814 166.687C117.15 148.523 114.503 138.61 96.1827 138.662L67.483 138.714C54.716 138.714 51.6021 131.967 52.2768 144.734Z" fill="#B2EEE6"/>
<path d="M181.296 167.206L193.129 181.426C193.129 181.426 209.113 168.556 201.744 160.719C194.426 152.934 181.296 167.206 181.296 167.206Z" fill="#71D2C1"/>
<path d="M206.674 149.716C202.003 154.543 196.191 158.124 189.755 160.044C187.835 160.615 188.665 163.625 190.586 163.054C197.54 160.926 203.82 157.138 208.854 151.896C210.255 150.443 208.075 148.263 206.674 149.716Z" fill="#71D2C1"/>
<path d="M208.698 154.232C205.013 157.397 201.069 160.252 196.865 162.795C195.153 163.833 196.709 166.531 198.422 165.494C202.833 162.795 206.985 159.785 210.878 156.411C212.435 155.166 210.255 152.934 208.698 154.232Z" fill="#71D2C1"/>
<path d="M207.971 160.615C205.221 162.743 202.366 164.715 199.46 166.635C197.799 167.725 199.356 170.424 201.017 169.334C203.923 167.414 206.778 165.442 209.528 163.314C211.137 162.12 209.58 159.421 207.971 160.615Z" fill="#71D2C1"/>
<path d="M207.141 166.583C205.584 167.777 203.975 168.919 202.418 170.112C199.668 172.188 196.606 173.642 193.492 175.095C191.675 175.925 193.232 178.624 195.049 177.793C198.163 176.34 201.225 174.887 203.975 172.811C205.532 171.618 207.089 170.476 208.698 169.282C210.307 168.088 208.75 165.39 207.141 166.583Z" fill="#71D2C1"/>
<path d="M234.18 135.963L95.4042 5.90623C89.7473 0.5607 81.6512 -1.30764 74.1778 0.975887C66.7045 3.25941 61.0476 9.27962 59.283 16.8568C57.5185 24.4339 59.9058 32.3744 65.6146 37.7199L204.391 167.777C208.646 171.773 213.68 174.887 219.182 176.911L263.243 193.052L244.249 150.132C241.861 144.786 238.436 139.96 234.18 135.963Z" fill="#F99192"/>
<path d="M89.9158 18.8034L78.1337 31.3763L219.655 163.995L231.437 151.422L89.9158 18.8034Z" fill="#F97171"/>
<path d="M211.501 172.707C215.082 174.939 218.87 176.755 222.815 178.209L263.192 193L245.806 153.661C244.093 149.82 242.017 146.135 239.578 142.71L211.501 172.707Z" fill="#FFD8C5"/>
<path d="M254.265 172.863L242.484 185.422L263.191 193L254.265 172.863Z" fill="#7A7A7A"/>
<path d="M74.1778 0.923972C66.7044 3.2075 61.0475 9.2277 59.283 16.8049C57.1552 23.9668 59.2311 31.6997 64.6804 36.8376L76.7208 48.1514L106.51 16.3378L95.3523 5.90621C89.6954 0.560684 81.5993 -1.30766 74.1778 0.923972Z" fill="#7A7A7A"/>
<path d="M192.195 151.896C189.807 155.737 187.161 159.421 184.618 163.21C183.112 165.442 186.693 167.517 188.199 165.286C190.742 161.549 193.388 157.864 195.776 153.972C197.177 151.74 193.596 149.613 192.195 151.896Z" fill="#71D2C1"/>
<path d="M88.398 120.601C88.7613 120.134 89.3322 120.29 89.6436 120.653C90.0588 121.172 90.7853 120.446 90.3702 119.927C89.5917 118.941 88.1904 119.096 87.5157 120.082C87.1006 120.601 87.9828 121.12 88.398 120.601Z" fill="#3A3144"/>
<path d="M85.855 123.248C86.6853 123.715 87.5676 123.923 88.5537 123.871C89.2284 123.819 89.2284 122.781 88.5537 122.833C87.7752 122.885 87.0486 122.729 86.3739 122.366C85.8031 122.003 85.2841 122.937 85.855 123.248Z" fill="#3A3144"/>
<path d="M83.26 118.681C83.776 118.681 84.1942 118.263 84.1942 117.747C84.1942 117.231 83.776 116.813 83.26 116.813C82.7441 116.813 82.3259 117.231 82.3259 117.747C82.3259 118.263 82.7441 118.681 83.26 118.681Z" fill="#3A3144"/>
<path d="M94.3144 117.851C94.8303 117.851 95.2486 117.433 95.2486 116.917C95.2486 116.401 94.8303 115.983 94.3144 115.983C93.7985 115.983 93.3802 116.401 93.3802 116.917C93.3802 117.433 93.7985 117.851 94.3144 117.851Z" fill="#3A3144"/>
<path d="M82.2221 114.685C82.6892 114.581 83.2082 114.529 83.6753 114.529C84.3499 114.529 84.3499 113.491 83.6753 113.491C83.1044 113.491 82.5335 113.543 81.9626 113.699C81.2879 113.803 81.5993 114.841 82.2221 114.685Z" fill="#3A3144"/>
<path d="M93.2765 113.803C93.7436 113.751 94.2107 113.699 94.6777 113.803C94.9372 113.855 95.2486 113.751 95.3005 113.44C95.3524 113.18 95.1967 112.817 94.9372 112.817C94.3664 112.713 93.7955 112.713 93.2765 112.817C93.017 112.869 92.7575 113.024 92.7575 113.336C92.7575 113.543 92.9651 113.855 93.2765 113.803Z" fill="#3A3144"/>
<path d="M74.645 103.112C74.645 103.112 79.3677 98.1296 89.955 99.3752C100.542 100.621 101.943 98.5967 101.476 103.112C100.594 112.038 79.4196 112.713 75.3196 109.651C71.2197 106.589 74.645 103.112 74.645 103.112Z" fill="#3A3144"/>
<path d="M94.5219 258.651C95.0409 269.809 93.6915 280.915 90.5257 291.658C90.3182 292.281 91.3561 292.592 91.5118 291.918C94.6776 281.123 96.027 269.861 95.508 258.651C95.508 258.028 94.47 257.976 94.5219 258.651Z" fill="#3A3144"/>
<path d="M110.04 163.21C110.351 163.21 110.351 162.691 110.04 162.691C109.728 162.691 109.728 163.21 110.04 163.21Z" fill="#3EB7B2"/>
<path d="M155.554 204.469C139.414 204.469 120.99 188.121 101.995 169.853C99.3484 167.31 96.0269 164.144 95.0408 163.366C95.1446 163.47 97.6357 165.286 101.58 165.286V139.337C107.133 139.337 110.922 142.71 113.413 144.942C115.177 146.551 117.409 148.679 120.004 151.118C125.609 156.463 133.238 163.833 140.711 169.697C151.091 177.845 155.139 178.468 155.606 178.52C163.806 178.157 176.625 168.4 183.164 161.549L201.951 179.454C199.616 181.945 178.39 203.587 156.54 204.469C156.177 204.469 155.866 204.469 155.554 204.469Z" fill="#B2EEE6"/>
<path d="M55.0273 43.3768L69.455 54.8983C69.455 54.8983 82.5334 39.0693 73.7626 32.8934C64.9918 26.7175 55.0273 43.3768 55.0273 43.3768Z" fill="#71D2C1"/>
<path d="M76.3056 21.1644C72.6727 26.8213 67.6905 31.4402 61.7741 34.6579C60.0095 35.5921 61.5665 38.2908 63.331 37.3566C69.7145 33.8794 75.06 28.8453 78.9524 22.7213C80.0942 21.0606 77.3955 19.5036 76.3056 21.1644Z" fill="#71D2C1"/>
<path d="M79.5232 24.9009C76.4612 28.8452 73.0878 32.5819 69.4031 36.0072C67.9499 37.3565 70.1296 39.5881 71.5828 38.1869C75.2676 34.7616 78.6409 31.0768 81.7029 27.0807C82.2219 26.406 82.3257 25.5237 81.7029 24.9009C81.184 24.3819 80.0422 24.2262 79.5232 24.9009Z" fill="#71D2C1"/>
<path d="M79.7827 31.5959C77.4992 34.2427 75.1118 36.7339 72.6726 39.1731C71.2714 40.5743 73.4511 42.806 74.8523 41.3528C77.3435 38.9136 79.6789 36.3706 81.9624 33.7756C83.3118 32.3225 81.132 30.0909 79.7827 31.5959Z" fill="#71D2C1"/>
<path d="M80.198 37.5641C78.9006 38.9654 77.655 40.4186 76.4094 41.8717C74.1778 44.4147 71.5829 46.4388 68.8842 48.4109C67.2753 49.6046 68.8323 52.3033 70.4411 51.1096C73.2436 49.0337 76.0462 46.9058 78.3816 44.3109C79.7309 42.8059 81.0284 41.3008 82.3777 39.7958C83.7271 38.2907 81.4955 36.111 80.198 37.5641Z" fill="#71D2C1"/>
<path d="M62.6045 26.3023C61.0476 30.5579 59.1793 34.7098 57.4147 38.9135C56.9995 39.9515 57.8818 41.1971 58.8679 41.4566C60.0615 41.768 60.9957 41.0414 61.4109 40.0034C63.1754 35.7996 65.0438 31.6478 66.6007 27.3921C67.5349 24.8491 63.4868 23.8111 62.6045 26.3023Z" fill="#71D2C1"/>
<path d="M74.2817 166.22C73.607 165.909 57.3629 158.799 41.6896 147.796C31.9846 140.997 24.4593 133.991 19.2695 127.037C9.56453 114.01 9.35694 102.696 10.9139 95.4826C14.0278 81.003 23.2138 65.7968 38.1605 50.2792C48.8515 39.173 58.6603 31.9072 59.0755 31.6477L74.4374 52.5627C65.3033 59.3095 40.6516 81.1068 36.3441 100.984C35.0466 107.056 42.52 116.553 56.3768 126.414C69.8704 135.963 84.5057 142.399 84.6614 142.451L74.2817 166.22Z" fill="#B2EEE6"/>
<path d="M52.9515 159.837C55.0274 160.563 57.1033 161.29 59.1793 162.016C59.8021 162.224 60.0615 161.238 59.4388 161.03C57.3628 160.304 55.2869 159.577 53.211 158.85C52.5882 158.591 52.3287 159.629 52.9515 159.837Z" fill="#3A3144"/>
<path d="M116.112 170.579C115.697 175.095 116.112 179.558 117.202 183.917C117.357 184.54 118.395 184.281 118.188 183.658C117.098 179.402 116.734 174.991 117.098 170.579C117.253 169.905 116.216 169.905 116.112 170.579Z" fill="#3A3144"/>
<path d="M91.2004 148.315C91.8596 148.315 92.394 147.781 92.394 147.122C92.394 146.462 91.8596 145.928 91.2004 145.928C90.5411 145.928 90.0067 146.462 90.0067 147.122C90.0067 147.781 90.5411 148.315 91.2004 148.315Z" fill="#B2EEE6"/>
<path d="M91.2004 159.318C91.8596 159.318 92.394 158.783 92.394 158.124C92.394 157.465 91.8596 156.93 91.2004 156.93C90.5411 156.93 90.0067 157.465 90.0067 158.124C90.0067 158.783 90.5411 159.318 91.2004 159.318Z" fill="#B2EEE6"/>
<path d="M91.2004 170.32C91.8596 170.32 92.394 169.786 92.394 169.126C92.394 168.467 91.8596 167.933 91.2004 167.933C90.5411 167.933 90.0067 168.467 90.0067 169.126C90.0067 169.786 90.5411 170.32 91.2004 170.32Z" fill="#B2EEE6"/>
</svg>
