<svg width="45" height="50" viewBox="0 0 45 50" fill="none" xmlns="http://www.w3.org/2000/svg">
<path d="M22.006 44.012C34.1596 44.012 44.012 34.1595 44.012 22.006C44.012 9.85241 34.1596 0 22.006 0C9.85242 0 0 9.85241 0 22.006C0 34.1595 9.85242 44.012 22.006 44.012Z" fill="#FFD8C5"/>
<path d="M31.512 33.9072H12.5V50H31.512V33.9072Z" fill="#FFD8C5"/>
<path d="M31.512 44.012H12.5V50H31.512V44.012Z" fill="#F99192"/>
<path d="M13.1736 29.6907C15.6187 33.1837 17.0409 37.3005 17.2405 41.5669C17.2904 42.515 18.7874 42.54 18.7375 41.5669C18.513 37.051 17.0409 32.6348 14.4461 28.9172C13.9221 28.1438 12.6247 28.8923 13.1736 29.6907Z" fill="#F99192"/>
<path d="M29.5409 28.9421C26.9461 32.6597 25.4741 37.0509 25.2495 41.5918C25.1996 42.5649 26.6966 42.5649 26.7465 41.5918C26.9461 37.3254 28.3683 33.2086 30.8134 29.7156C31.3872 28.8923 30.0898 28.1437 29.5409 28.9421Z" fill="#F99192"/>
<path d="M21.2574 27.0959C21.2574 29.9152 21.2574 32.7346 21.2574 35.554C21.2574 36.527 22.7545 36.527 22.7545 35.554C22.7545 32.7346 22.7545 29.9152 22.7545 27.0959C22.7545 26.1228 21.2574 26.1228 21.2574 27.0959Z" fill="#F99192"/>
<path d="M22.1057 40.6188C23.0788 40.6188 23.0788 39.1218 22.1057 39.1218C21.1576 39.1218 21.1576 40.6188 22.1057 40.6188Z" fill="#F99192"/>
<path d="M22.1057 24.4761C23.0788 24.4761 23.0788 22.9791 22.1057 22.9791C21.1576 22.9791 21.1576 24.4761 22.1057 24.4761Z" fill="#F99192"/>
</svg>
