<svg  viewBox="0 0 470 583" fill="none" xmlns="http://www.w3.org/2000/svg">
<path d="M137.863 190.703C137.863 190.703 101.892 255.922 85.5536 230.708" stroke="#B2EEE6" stroke-width="34" stroke-miterlimit="10"/>
<path d="M129.66 180.08L99.7404 194.603C99.7404 194.603 89.5206 235.079 113.188 223.783C137.796 211.95 129.66 180.08 129.66 180.08Z" fill="#3EB7B2"/>
<path d="M32.2359 559.759C22.8901 555.053 14.6201 548.464 8.03106 540.328C5.0727 536.63 0.836855 531.251 2.31604 526.141C3.86246 520.83 10.7205 521.032 15.0236 522.107C20.8731 523.519 26.1174 526.747 30.1516 531.251C30.8911 532.125 32.3703 530.982 31.7652 530.041C28.8068 525.267 24.0331 521.973 21.0748 517.199C18.9232 513.77 18.2509 508.459 21.0748 505.164C24.2348 501.466 28.5379 504.223 31.0929 506.979C33.9167 510.005 36.27 513.77 40.1697 515.451C41.111 515.854 42.3884 514.644 41.3799 513.837C34.9253 508.66 29.2103 502.542 24.6382 495.684C20.7386 489.834 16.7717 483.178 16.5027 475.917C16.3683 473.025 16.9062 469.798 18.9232 467.579C21.7471 464.486 26.0502 464.554 29.7481 465.898C33.715 467.378 37.2113 470.067 40.4386 472.756C43.4642 475.311 46.3553 478.068 48.9775 481.026C54.9615 487.75 59.8697 495.482 63.2987 503.819C63.7693 504.962 65.6519 504.559 65.2485 503.281C63.6349 497.701 67.1311 491.179 72.8461 489.834C78.7629 488.355 84.8813 493.062 85.7554 498.844C85.8898 499.852 87.5035 499.785 87.7052 498.844C88.5793 495.213 89.5206 491.112 92.3445 488.422C95.1011 485.8 99.068 485.531 102.497 486.607C110.498 489.095 113.86 497.634 116.549 504.761C116.953 505.836 118.432 505.635 118.499 504.492C119.037 498.911 119.508 493.062 122.197 488.019C124.349 483.918 128.248 480.287 132.955 479.682C138.334 479.009 142.973 482.506 146.335 486.271C149.965 490.238 152.991 494.81 155.546 499.583C158.37 505.03 160.454 510.812 161.799 516.796C162.068 517.871 163.883 517.67 163.749 516.527C163.143 511.013 162.135 503.483 166.505 499.18C169.464 496.222 175.649 495.011 178.003 499.247C178.608 500.39 180.356 499.382 179.751 498.239C176.994 493.331 170.203 493.734 166.169 496.76C160.185 501.197 160.992 510.005 161.732 516.527C162.404 516.46 163.076 516.325 163.681 516.258C161.126 504.626 155.613 493.129 147.343 484.455C143.712 480.69 138.939 477.261 133.425 477.665C128.45 478.001 124.214 481.161 121.457 485.195C117.558 490.843 116.953 497.97 116.348 504.559C117.02 504.492 117.692 504.357 118.297 504.29C115.205 496.154 111.238 486.741 101.892 484.455C98.1267 483.581 94.0253 484.119 91.067 486.674C87.7052 489.565 86.495 494.137 85.5537 498.306C86.226 498.306 86.8311 498.306 87.5035 498.306C86.4277 491.381 78.9646 486.136 72.1065 487.884C65.383 489.565 61.2144 497.297 63.097 503.819C63.7693 503.618 64.3745 503.483 65.0468 503.281C61.685 495.213 57.113 487.683 51.4652 481.026C48.5741 477.665 45.4813 474.572 42.0523 471.681C38.6905 468.857 35.1942 466.1 31.0929 464.419C27.4621 462.873 23.2263 462.335 19.6628 464.352C16.9062 465.898 15.2253 468.722 14.6201 471.748C13.2082 479.077 16.5027 486.271 20.0662 492.456C25.1761 501.197 31.8997 508.929 39.8335 515.317C40.2369 514.779 40.6403 514.241 41.0437 513.703C34.858 510.946 31.9669 500.861 24.3693 501.332C16.3683 501.869 15.8304 512.627 19.0577 517.939C22.0161 522.847 26.857 526.141 29.8826 530.982C30.4205 530.579 30.9584 530.176 31.4963 529.772C27.5966 525.469 22.6212 522.242 17.0406 520.561C12.4686 519.149 6.48464 518.409 2.58498 521.906C-1.7181 525.805 0.0972642 532.125 2.65222 536.429C5.67782 541.471 9.91366 545.976 14.284 549.943C19.3266 554.515 24.9744 558.415 31.0929 561.44C32.3703 562.045 33.4461 560.297 32.2359 559.759Z" fill="#FFD8C5"/>
<path d="M367.405 570.315C336.208 564.13 329.35 562.045 327.467 552.968C325.585 543.892 366.598 526.007 366.666 516.729C366.733 512.089 367.809 507.316 370.901 503.819C373.994 500.323 379.44 498.844 383.407 501.13C387.509 503.483 388.719 508.727 389.593 513.367C394.635 510.274 389.391 501.735 392.484 496.625C394.165 493.868 398.132 493.062 401.023 494.474C403.914 495.885 405.797 498.911 406.335 502.138C407.141 506.643 405.662 511.35 406.402 515.854C407.141 520.359 412.049 524.864 416.016 522.444C417.227 521.704 418.033 520.426 418.706 519.082C420.857 514.779 421.597 509.736 420.79 504.962C420.319 502.206 419.311 499.516 419.176 496.692C419.042 493.868 419.983 490.776 422.471 489.364C424.959 487.952 428.791 489.498 428.791 492.322C430.27 487.078 432.018 481.295 436.658 478.404C442.978 474.437 452.525 477.06 457.434 471.479C458.577 470.202 459.316 468.588 460.795 467.714C463.619 466.167 467.183 468.588 468.595 471.479C473.705 481.833 463.216 493.398 463.485 504.962C463.619 510.072 465.905 515.182 464.829 520.225C463.485 526.41 457.366 530.377 451.382 532.596C445.398 534.815 438.944 536.16 433.968 540.126C432.556 541.269 431.279 542.681 430.875 544.43C430.539 546.178 431.413 548.329 433.161 548.8C434.641 549.203 436.12 548.329 437.599 548.262C440.087 548.128 442.507 550.414 442.44 552.968C442.373 555.523 439.818 557.675 437.33 557.339C441.297 556.33 444.121 562.113 442.238 565.743C440.356 569.374 436.12 570.988 432.22 572.265" fill="#FFD8C5"/>
<path d="M315.634 455.342H214.78V316.568H265.207C285.983 316.568 302.926 299.625 302.926 278.849C302.926 258.073 285.983 241.13 265.207 241.13C244.431 241.13 227.488 258.073 227.488 278.849H126.635C126.635 202.402 188.827 140.277 265.207 140.277C341.587 140.277 403.847 202.402 403.847 278.849C403.847 337.479 367.271 387.771 315.701 407.941V455.342H315.634Z" fill="#F97171"/>
<path d="M315.634 140.277H265.207V229.565H315.634V140.277Z" fill="#F97171"/>
<path d="M315.634 503.55H214.78V569.239H315.634V503.55Z" fill="#E55C5C"/>
<path d="M366.06 455.342H265.207V316.568H315.634C336.41 316.568 353.353 299.625 353.353 278.849C353.353 258.073 336.41 241.13 315.634 241.13C294.858 241.13 277.915 258.073 277.915 278.849H177.061C177.061 202.402 239.254 140.277 315.634 140.277C392.013 140.277 454.273 202.402 454.273 278.849C454.273 337.479 417.697 387.771 366.128 407.941V455.342H366.06Z" fill="#F99192"/>
<path d="M206.712 193.325L195.753 278.849H277.915C277.915 278.446 277.915 277.975 277.915 277.572C278.183 269.234 275.965 260.964 271.191 254.106C247.457 220.152 206.712 193.325 206.712 193.325Z" fill="#F97171"/>
<path d="M279.125 316.568H265.274V322.149C270.384 321.207 275.225 319.526 279.125 316.568Z" fill="#F97171"/>
<path d="M234.951 278.849H277.915" stroke="#3A3144" stroke-width="2" stroke-miterlimit="10"/>
<path d="M163.211 536.496C163.211 536.496 157.832 564.869 156.218 578.921C156.017 580.804 154.403 582.216 152.52 582.216H110.431C107.809 582.216 106.531 579.056 108.414 577.24C114.196 571.66 122.937 575.963 124.349 549.674C125.357 530.646 128.114 511.551 128.114 511.551" fill="#3A3144"/>
<path d="M163.211 536.496C163.211 536.496 157.832 564.869 156.218 578.921C156.017 580.804 154.403 582.216 152.52 582.216H110.431C107.809 582.216 106.531 579.056 108.414 577.24C114.196 571.66 122.937 575.963 124.349 549.674C125.357 530.646 128.114 511.551 128.114 511.551" fill="#3A3144"/>
<path d="M127.038 559.02C125.626 558.347 124.214 557.809 122.668 557.473C122.264 557.406 122.063 558.011 122.466 558.146C123.945 558.482 125.357 558.952 126.702 559.625C127.038 559.759 127.441 559.221 127.038 559.02Z" fill="#D18C3D"/>
<path d="M126.097 563.323C124.617 562.65 123.138 562.113 121.525 561.844C121.121 561.776 120.92 562.381 121.323 562.516C122.869 562.785 124.281 563.256 125.693 563.928C126.164 564.13 126.5 563.524 126.097 563.323Z" fill="#D18C3D"/>
<path d="M123.878 567.693C122.668 567.021 121.39 566.55 120.045 566.214C119.642 566.146 119.44 566.752 119.844 566.886C121.121 567.155 122.332 567.626 123.542 568.298C123.878 568.5 124.214 567.895 123.878 567.693Z" fill="#D18C3D"/>
<path d="M176.254 270.445C176.254 270.445 157.899 369.483 157.025 397.184C156.151 424.885 143.175 546.917 143.175 546.917" stroke="#7A7A7A" stroke-width="80" stroke-miterlimit="10"/>
<path d="M132.484 509.198C132.484 509.198 139.208 537.302 143.444 550.75C143.981 552.565 143.175 554.515 141.426 555.254L103.035 572.399C100.682 573.475 98.194 571.122 99.2025 568.701C102.161 561.238 111.91 561.575 102.497 537.034C95.639 519.283 90.3947 500.726 90.3947 500.726" fill="#3A3144"/>
<path d="M132.484 509.198C132.484 509.198 139.208 537.302 143.444 550.75C143.981 552.565 143.175 554.515 141.426 555.254L103.035 572.399C100.682 573.475 98.194 571.122 99.2025 568.701C102.161 561.238 111.91 561.575 102.497 537.034C95.639 519.283 90.3947 500.726 90.3947 500.726" fill="#3A3144"/>
<path d="M108.615 544.564C107.069 544.497 105.523 544.631 103.976 544.967C103.573 545.035 103.707 545.707 104.178 545.64C105.657 545.371 107.136 545.236 108.615 545.236C109.019 545.236 109.019 544.564 108.615 544.564Z" fill="#D18C3D"/>
<path d="M109.557 548.867C107.943 548.8 106.397 549.002 104.783 549.338C104.38 549.472 104.514 550.077 104.985 550.01C106.464 549.674 108.01 549.472 109.557 549.539C109.96 549.539 109.96 548.867 109.557 548.867Z" fill="#D18C3D"/>
<path d="M109.288 553.775C107.876 553.641 106.531 553.708 105.186 553.977C104.783 554.044 104.918 554.717 105.388 554.649C106.666 554.38 108.01 554.313 109.288 554.448C109.691 554.448 109.691 553.775 109.288 553.775Z" fill="#D18C3D"/>
<path d="M150.638 281.606C150.638 281.606 77.1492 350.993 76.8803 377.282C76.6113 403.571 120.113 526.679 120.113 526.679" stroke="#7A7A7A" stroke-width="80" stroke-miterlimit="10"/>
<path d="M163.211 295.792C184.154 295.792 201.132 278.815 201.132 257.872C201.132 236.928 184.154 219.951 163.211 219.951C142.268 219.951 125.29 236.928 125.29 257.872C125.29 278.815 142.268 295.792 163.211 295.792Z" fill="#7A7A7A"/>
<path d="M126.298 266.478C126.298 266.478 193.87 308.702 196.56 306.617C197.165 306.147 200.594 286.783 202.207 278.714C203.821 270.646 202.812 262.242 199.115 259.149" fill="#595959"/>
<path d="M162.673 161.052L163.211 180.08" stroke="#71D2C1" stroke-width="32" stroke-miterlimit="10"/>
<path d="M165.161 170.264C165.161 170.264 159.58 174.499 152.251 173.356L151.915 165.154L153.125 165.221" fill="#3A3144"/>
<path d="M158.571 171.205C168.321 171.944 176.86 164.616 177.599 154.799L178.204 146.462C178.877 137.453 172.086 129.586 163.076 128.914C154.067 128.241 146.2 135.032 145.528 144.042L144.721 155.203C144.183 163.406 150.369 170.6 158.571 171.205Z" fill="#71D2C1"/>
<path d="M147.814 141.756C147.679 141.89 147.948 147.336 145.998 148.076C144.049 148.815 143.443 143.706 143.712 142.226" fill="#3A3144"/>
<path d="M184.323 140.545C183.583 137.654 177.397 132.141 172.825 133.082C172.825 133.082 168.522 124.476 156.017 127.031C143.511 129.586 137.728 134.024 141.023 136.915C143.443 139.066 144.183 138.394 144.183 138.394C144.183 138.394 139.477 139.806 141.561 142.697C145.595 148.21 164.018 140.411 166.035 139.335C165.093 139.806 161.732 141.756 163.883 143.706C167.312 146.664 173.229 141.756 173.229 141.756C173.229 141.756 173.565 149.421 176.456 150.227C179.28 151.034 180.221 145.05 180.221 145.05C180.221 145.05 180.826 146.529 182.306 146.664C183.852 146.798 184.121 144.647 182.171 141.823C182.238 141.756 185.062 143.437 184.323 140.545Z" fill="#3A3144"/>
<path d="M141.292 147.471C140.418 150.765 142.502 156.211 146.671 156.547C146.671 156.547 148.486 147.269 148.486 147.202C148.621 146.597 145.729 145.117 145.192 145.05C143.04 144.647 141.763 145.79 141.292 147.471Z" fill="#71D2C1"/>
<path d="M182.709 150.564C183.112 153.993 180.221 159.035 176.053 158.766C176.053 158.766 173.363 150.9 174.977 149.421C175.448 149.017 178.675 147.672 179.146 147.672C181.499 147.471 182.507 148.815 182.709 150.564Z" fill="#71D2C1"/>
<path d="M212.629 261.032L206.04 201.528C204.628 188.686 193.803 178.937 180.826 178.937L149.36 178.87C128.584 178.802 123.407 188.686 124.483 206.907C124.886 213.563 124.886 220.287 124.281 226.943L122.399 263.116C122.264 265.604 124.214 267.621 126.702 267.621H206.645C208.864 267.621 210.881 266.41 211.889 264.595C212.629 263.519 212.763 262.242 212.629 261.032Z" fill="#B2EEE6"/>
<path d="M118.701 173.558L130.938 194.132C130.938 194.132 153.999 180.887 146.2 169.457C138.401 158.027 118.701 173.558 118.701 173.558Z" fill="#71D2C1"/>
<path d="M150.1 157.758C144.788 159.304 139.746 161.523 135.442 164.952C132.551 167.238 130.198 170.062 128.047 173.087C126.5 175.172 129.996 177.189 131.543 175.105C133.425 172.55 135.51 170.062 137.997 168.045C141.83 164.952 146.469 163.002 151.176 161.657C153.663 160.918 152.587 157.018 150.1 157.758Z" fill="#71D2C1"/>
<path d="M151.377 163.204C144.654 164.481 139.477 168.179 133.896 171.81C131.744 173.222 133.762 176.718 135.913 175.306C141.225 171.877 146.066 168.381 152.453 167.104C155.008 166.633 153.932 162.733 151.377 163.204Z" fill="#71D2C1"/>
<path d="M154.941 167.574C154.403 167.843 155.142 167.507 154.47 167.776C154.067 167.91 153.731 168.045 153.327 168.247C152.251 168.65 151.176 169.053 150.1 169.457C147.41 170.465 144.788 171.541 142.166 172.751C139.88 173.76 131.476 177.189 134.367 181.089C135.913 183.173 139.409 181.156 137.863 179.071C137.728 178.87 137.93 179.475 137.93 179.609C137.93 179.273 137.863 179.878 137.863 179.946C137.863 180.282 137.796 179.811 137.93 179.811C137.863 179.811 137.728 180.013 138.065 179.744C138.535 179.273 139.14 178.87 139.88 178.466C141.83 177.323 143.981 176.382 146.066 175.508C149.629 173.962 153.462 172.819 156.958 171.138C159.378 169.995 157.294 166.498 154.941 167.574Z" fill="#71D2C1"/>
<path d="M154.268 174.701C150.772 175.239 147.276 176.18 144.049 177.592C141.964 178.534 140.62 179.744 139.342 181.626C137.392 184.45 134.501 186.4 131.207 187.341C128.719 188.081 129.795 191.981 132.282 191.241C135.442 190.3 138.401 188.619 140.754 186.198C142.502 184.383 143.175 182.433 145.461 181.29C148.486 179.811 152.05 179.071 155.344 178.534C157.899 178.197 156.823 174.298 154.268 174.701Z" fill="#71D2C1"/>
<path d="M133.56 158.43C133.224 158.766 132.955 159.17 132.686 159.506C132.014 160.313 132.888 159.371 132.619 159.573C132.081 160.044 131.61 160.649 131.072 161.187C129.862 162.464 128.652 163.674 127.509 164.952C125.021 167.507 122.601 170.062 120.113 172.617C117.76 175.104 121.525 178.937 123.945 176.449C126.366 173.894 128.853 171.339 131.341 168.784C132.551 167.574 133.762 166.297 134.905 165.019C135.375 164.481 135.913 164.011 136.384 163.473C136.586 163.204 136.787 162.935 136.989 162.666C136.653 163.069 137.056 162.666 137.392 162.262C139.611 159.64 135.846 155.808 133.56 158.43Z" fill="#71D2C1"/>
<path d="M85.5536 230.708C69.6188 206.1 131.005 182.164 134.905 178.937" stroke="#B2EEE6" stroke-width="34" stroke-miterlimit="10"/>
<path d="M139.746 235.348L126.298 267.621C126.433 267.621 126.635 267.621 126.769 267.621H206.712L151.915 230.708L139.746 235.348Z" fill="#3EB7B2"/>
<path d="M110.901 190.636C119.171 191.443 135.106 193.124 143.107 194.603C144.25 194.805 145.124 195.611 145.528 196.687C147.478 202.268 152.789 221.363 148.419 251.417C148.15 253.3 146.2 254.51 144.385 253.972C138.401 252.089 125.828 248.795 115.944 250.341C113.927 250.677 112.112 248.996 112.313 246.912C113.322 237.297 114.734 213.967 107.741 194.872C106.867 192.653 108.548 190.367 110.901 190.636Z" fill="white"/>
<path d="M160.723 154.799C159.849 153.589 158.034 153.32 157.025 154.598C156.487 155.27 157.428 156.211 157.966 155.539C158.37 155.001 159.109 154.867 159.58 155.472C160.051 156.144 161.194 155.472 160.723 154.799Z" fill="#3A3144"/>
<path d="M157.16 158.766C157.63 158.632 158.034 158.699 158.504 158.901C159.244 159.304 159.916 158.161 159.177 157.758C158.437 157.354 157.63 157.287 156.823 157.489C155.949 157.691 156.286 158.968 157.16 158.766Z" fill="#3A3144"/>
<path d="M167.917 153.589C168.586 153.589 169.128 153.047 169.128 152.379C169.128 151.711 168.586 151.169 167.917 151.169C167.249 151.169 166.707 151.711 166.707 152.379C166.707 153.047 167.249 153.589 167.917 153.589Z" fill="#3A3144"/>
<path d="M153.596 152.581C154.265 152.581 154.806 152.039 154.806 151.37C154.806 150.702 154.265 150.16 153.596 150.16C152.928 150.16 152.386 150.702 152.386 151.37C152.386 152.039 152.928 152.581 153.596 152.581Z" fill="#3A3144"/>
<path d="M170.002 145.521C169.262 145.319 168.522 145.252 167.783 145.252C166.909 145.252 166.909 146.597 167.783 146.597C168.455 146.597 169.06 146.664 169.665 146.798C170.472 147 170.808 145.723 170.002 145.521Z" fill="#3A3144"/>
<path d="M155.344 144.378C154.605 144.311 153.865 144.311 153.193 144.378C152.856 144.445 152.655 144.916 152.722 145.185C152.856 145.588 153.193 145.723 153.529 145.655C154.134 145.588 154.739 145.588 155.344 145.655C155.68 145.723 156.017 145.319 156.017 144.983C156.017 144.647 155.68 144.445 155.344 144.378Z" fill="#3A3144"/>
<path d="M131.476 210.739C131.879 210.739 131.879 210.067 131.476 210.067C131.072 210.067 131.072 210.739 131.476 210.739Z" fill="#4F8AE0"/>
<path d="M163.614 222.842L148.688 241.533C148.688 241.533 127.643 225.262 136.989 214.975C146.267 204.621 163.614 222.842 163.614 222.842Z" fill="#71D2C1"/>
<path d="M132.484 203.411C137.056 211.613 143.645 218.539 151.579 223.514C153.798 224.926 155.815 221.43 153.596 220.018C146.2 215.379 140.149 208.991 135.98 201.326C134.703 199.108 131.207 201.192 132.484 203.411Z" fill="#71D2C1"/>
<path d="M127.307 208.386C131.475 213.362 136.048 218.001 140.956 222.237C142.906 223.918 145.797 221.094 143.78 219.413C138.871 215.177 134.299 210.538 130.131 205.562C128.517 203.545 125.693 206.436 127.307 208.386Z" fill="#71D2C1"/>
<path d="M125.021 216.791C128.652 219.48 132.35 221.968 136.182 224.388C138.401 225.8 140.418 222.304 138.199 220.892C134.367 218.539 130.669 215.984 127.038 213.294C124.954 211.748 122.937 215.244 125.021 216.791Z" fill="#71D2C1"/>
<path d="M126.433 224.523C133.156 229.296 139.88 234.944 147.478 238.44C149.831 239.516 151.848 236.02 149.495 234.944C141.897 231.515 135.241 225.867 128.45 221.026C126.366 219.547 124.349 223.044 126.433 224.523Z" fill="#71D2C1"/>
<path d="M146.469 208.79C149.965 214.303 154.067 219.346 157.765 224.657C158.639 225.867 160.118 226.405 161.463 225.599C162.606 224.926 163.278 223.111 162.404 221.901C158.639 216.589 154.537 211.479 151.108 206.033C149.293 203.142 144.654 205.831 146.469 208.79Z" fill="#71D2C1"/>
<path d="M140.418 314.349C139.544 319.997 138.67 325.645 137.728 331.293C137.594 332.167 138.871 332.503 139.006 331.629C139.88 325.981 140.754 320.333 141.695 314.686C141.83 313.879 140.552 313.475 140.418 314.349Z" fill="#3A3144"/>
<path d="M127.307 461.932C132.82 480.556 138.334 499.113 143.847 517.737C144.116 518.544 145.393 518.208 145.124 517.401C139.611 498.777 134.098 480.22 128.584 461.595C128.315 460.789 127.038 461.125 127.307 461.932Z" fill="#3A3144"/>
<path d="M178.473 278.042C180.826 281.538 183.449 284.833 186.474 287.791C187.079 288.396 188.021 287.455 187.416 286.85C184.524 283.959 181.902 280.799 179.616 277.37C179.146 276.63 177.935 277.303 178.473 278.042Z" fill="#3A3144"/>
<path d="M184.457 196.553C184.457 196.553 230.917 227.078 227.286 255.115C223.656 283.152 148.486 222.976 148.486 222.976" stroke="#B2EEE6" stroke-width="34" stroke-miterlimit="10"/>
<path d="M165.766 215.648C171.682 219.48 177.33 223.649 183.314 227.279C187.684 229.969 192.256 232.389 196.828 234.675C201.535 236.961 206.578 239.718 211.889 239.852C212.293 239.852 212.293 239.18 211.889 239.18C206.107 238.978 200.526 235.818 195.484 233.263C191.181 231.112 186.878 228.691 182.776 226.204C177.061 222.707 171.682 218.74 166.102 215.11C165.766 214.841 165.429 215.446 165.766 215.648Z" fill="#3EB7B2"/>
<path d="M366.06 503.55H265.207V569.239H366.06V503.55Z" fill="#F99192"/>
<path d="M87.1674 128.443L79.7042 131.738C76.9476 132.948 73.7203 131.738 72.4428 128.914L67.8035 118.425C65.7192 113.719 67.8708 108.138 72.5773 106.054C75.939 104.574 77.8216 100.809 76.6786 97.313C75.4012 93.1444 70.8291 91.1946 66.9295 92.8755C64.6435 93.884 63.1643 95.9011 62.7609 98.1871C62.223 101.213 60.0714 103.768 57.2476 104.978C50.3223 108.071 42.5902 102.154 44.0022 94.6909C45.683 85.8158 51.8015 77.9492 61.08 74.6547C73.3169 70.3516 87.0329 75.7304 93.0169 87.1605C97.9923 96.7079 96.5804 107.735 90.4619 115.601C89.2517 117.148 89.05 119.299 89.7896 121.114C91.2015 124.006 89.9913 127.233 87.1674 128.443Z" fill="#FFE2D9"/>
<path d="M92.5462 143.033L86.4278 145.723C83.2677 147.135 79.637 145.655 78.225 142.563C76.8131 139.402 78.2923 135.772 81.3851 134.36L87.5035 131.67C90.6636 130.258 94.2943 131.738 95.7063 134.83C97.051 137.991 95.639 141.621 92.5462 143.033Z" fill="#FFE2D9"/>
<path d="M241.944 99.868L232.867 96.4389C229.438 95.1615 227.757 91.329 229.034 87.9673L233.875 75.1253C236.094 69.343 242.549 66.3847 248.331 68.6034C252.432 70.1498 257.206 68.5362 259.156 64.6365C261.509 59.9973 259.29 54.484 254.584 52.6686C251.827 51.5928 248.869 52.1307 246.583 53.6771C243.557 55.8287 239.59 56.1648 236.094 54.8201C227.555 51.5928 226.009 40.0955 233.472 34.8512C242.347 28.6655 254.18 27.1191 264.871 32.0945C278.923 38.6836 286.117 54.8201 281.68 69.6792C277.915 82.0505 267.426 90.2533 255.592 91.7997C253.239 92.1359 251.222 93.7495 250.415 95.9683C249.138 99.4645 245.373 101.145 241.944 99.868Z" fill="#FFECE5"/>
<path d="M234.279 116.811L226.816 113.987C222.983 112.508 221.033 108.205 222.445 104.373C223.924 100.54 228.227 98.5905 232.06 100.002L239.523 102.826C243.355 104.306 245.305 108.609 243.893 112.441C242.414 116.341 238.111 118.291 234.279 116.811Z" fill="#FFECE5"/>
<path d="M159.647 89.3792L147.41 90.7239C142.838 91.1946 138.737 87.9 138.266 83.3952L136.384 66.1829C135.51 58.3836 141.157 51.3911 148.89 50.5843C154.403 49.9792 158.773 45.4071 158.84 39.8938C158.84 33.3047 153.193 28.3965 146.805 29.0689C143.107 29.4723 140.014 31.6911 138.401 34.7839C136.182 38.9525 131.946 41.5747 127.307 42.1126C115.877 43.3901 107.54 31.3549 112.919 21.2023C119.373 9.09994 131.879 0.561024 146.738 0.02314C166.304 -0.649216 183.65 13.403 187.147 32.6996C190.038 48.7689 182.843 64.0314 170.472 72.5703C167.984 74.2512 166.707 77.2768 167.043 80.2352C167.514 84.8072 164.219 88.9085 159.647 89.3792Z" fill="#FFD8C5"/>
<path d="M160.723 112.844L150.705 113.92C145.528 114.458 140.889 110.76 140.283 105.583C139.746 100.406 143.443 95.7665 148.621 95.1614L158.639 94.0856C163.816 93.5478 168.455 97.2457 169.06 102.423C169.598 107.6 165.833 112.306 160.723 112.844Z" fill="#FFD8C5"/>
<path d="M214.78 455.342H366.06" stroke="#3A3144" stroke-width="2" stroke-miterlimit="10"/>
<path d="M214.78 569.239H366.06" stroke="#3A3144" stroke-width="2" stroke-miterlimit="10"/>
<path d="M445.533 503.416C432.018 522.376 415.142 538.983 395.98 552.229C390.265 556.128 384.348 560.23 377.961 562.852C377.558 562.986 377.759 563.659 378.163 563.524C383.811 561.238 388.988 557.809 394.03 554.447C398.871 551.22 403.511 547.791 408.083 544.16C417.361 536.697 426.035 528.427 433.834 519.485C438.204 514.442 442.306 509.265 446.205 503.819C446.407 503.416 445.802 503.08 445.533 503.416Z" fill="#FFECE5"/>
<path d="M388.921 518.678C385.29 531.789 384.416 545.505 386.231 558.952C386.298 559.356 386.904 559.221 386.904 558.751C385.088 545.438 386.029 531.789 389.593 518.813C389.66 518.477 388.988 518.275 388.921 518.678Z" fill="#FFECE5"/>
<path d="M400.351 530.175C399.14 536.428 399.208 542.816 400.687 549.069C400.754 549.472 401.426 549.338 401.359 548.867C399.947 542.748 399.88 536.496 401.023 530.377C401.09 529.906 400.485 529.772 400.351 530.175Z" fill="#FFECE5"/>
<path d="M447.819 521.569C442.104 522.914 436.254 523.587 430.405 523.587C430.001 523.587 430.001 524.259 430.405 524.259C436.322 524.259 442.238 523.587 448.021 522.242C448.424 522.107 448.222 521.435 447.819 521.569Z" fill="#FFECE5"/>
</svg>
